<svg xmlns="http://www.w3.org/2000/svg" width="25" height="25" fill="none"><g fill="#F0F0F0" clip-path="url(#a)"><path d="M12.171.564c.488 0 .984-.017 1.47.028 5.155.478 9.52 4.432 10.492 9.52 1.37 7.172-4.001 14-11.321 14.106l-.04.002C5.824 24.412.22 18.559.682 11.686 1.096 5.558 6.064.696 12.173.564Zm-7.98 17.593c.644-1.57 1.454-2.737 2.84-3.784.508-.384 1.499-1.12 2.183-.823.17.074.304.23.443.35.871.756 2.032 1.005 3.155.98.947-.095 1.843-.381 2.594-.975.692-.548.896-.545 1.732-.057 1.702.995 3.08 2.385 3.694 4.309.231-.271.405-.616.574-.93 3.226-5.98-.193-13.424-6.97-14.795a10.465 10.465 0 0 0-2.202-.2c-.362.03-.73.04-1.089.096C4.043 3.415.203 11.168 3.65 17.318c.158.282.328.595.541.839Zm1.332 1.587c2.619 2.68 7.104 3.397 10.55 2.097.175-.066.353-.13.522-.212.733-.332 2.21-1.165 2.759-1.789.007-1.616-1.566-3.76-3.053-4.436-.217.14-.431.293-.66.415-2.011 1.078-4.528 1.024-6.487-.145-.157-.093-.33-.25-.518-.27-.225.076-.444.257-.63.403-1.156.905-2.311 2.427-2.483 3.937Z"/><path d="M12.443 5.031h.035a4.28 4.28 0 0 1 2.991 1.22c2.767 2.752.802 7.435-2.88 7.433l-.09.004c-2.281.063-4.23-1.993-4.28-4.223a4.315 4.315 0 0 1 4.224-4.434Zm.294 6.942c.758-.11 1.33-.387 1.799-1.012 1.38-1.84-.08-4.388-2.258-4.156-1.47.17-2.497 1.424-2.33 2.902.157 1.378 1.42 2.374 2.789 2.266Z"/></g><defs><clipPath id="a"><path fill="#fff" d="M.5.5h24v24H.5z"/></clipPath></defs></svg>