<?xml version="1.0" encoding="utf-8" ?>
<svg xmlns="http://www.w3.org/2000/svg" xmlns:xlink="http://www.w3.org/1999/xlink" width="1024" height="1024">
	<path fill="#97CB3E" transform="scale(2 2)" d="M158.516 1.81916C161.098 1.53801 163.76 1.61024 166.229 2.47007C175.287 5.62347 178.785 17.0901 182.912 24.7824C185.53 29.6639 188.457 34.3494 190.952 39.3033C203.922 33.0477 218.942 29.1875 233.16 27.2056Q235.193 26.9041 237.233 26.6537Q239.273 26.4034 241.318 26.2043Q243.364 26.0053 245.414 25.8577Q247.464 25.7101 249.516 25.614Q251.569 25.518 253.624 25.4735Q255.679 25.429 257.734 25.4362Q259.789 25.4434 261.844 25.5022Q263.898 25.561 265.95 25.6713Q268.002 25.7817 270.051 25.9436Q272.1 26.1055 274.144 26.3188Q276.188 26.5321 278.226 26.7967Q280.264 27.0613 282.295 27.377Q284.326 27.6926 286.348 28.0592Q288.37 28.4259 290.383 28.8431Q292.395 29.2604 294.396 29.7281Q296.398 30.1958 298.386 30.7137Q300.375 31.2315 302.351 31.7991Q304.326 32.3667 306.286 32.9838Q308.247 33.6009 310.191 34.267Q312.135 34.9331 314.062 35.6478Q315.989 36.3625 317.897 37.1255Q319.806 37.8884 321.694 38.699Q323.583 39.5096 325.45 40.3674Q327.318 41.2252 329.163 42.1296Q331.009 43.034 332.831 43.9845Q334.653 44.935 336.451 45.931Q338.249 46.927 340.021 47.9678Q341.793 49.0086 343.538 50.0936Q345.284 51.1787 347.001 52.3072Q348.719 53.4357 350.408 54.607Q352.097 55.7783 353.755 56.9916Q355.414 58.205 357.042 59.4596Q359.346 61.2017 361.591 63.0197Q363.836 64.8377 366.019 66.7294Q368.202 68.6212 370.32 70.5846Q372.439 72.548 374.491 74.581Q376.544 76.6139 378.527 78.7141Q380.51 80.8143 382.422 82.9794Q384.334 85.1445 386.173 87.3722Q388.012 89.5998 389.776 91.8875Q391.54 94.1751 393.226 96.5203Q394.913 98.8654 396.52 101.266Q398.128 103.666 399.654 106.118Q401.181 108.57 402.625 111.072Q404.069 113.574 405.429 116.122Q406.789 118.671 408.063 121.263Q409.337 123.856 410.524 126.489Q411.711 129.122 412.81 131.794C415.003 137.187 417.631 143.028 418.385 148.833C418.974 153.371 418.499 158.313 415.537 161.998C412.703 165.523 408.106 167.018 403.761 167.509C398.104 168.149 392.455 167.936 386.778 167.874Q378.209 167.81 369.639 167.832L301.328 167.839L219.82 167.929L195.842 167.928C190.712 167.934 185.46 168.126 180.348 167.696C176.281 167.353 172.483 166.06 169.281 163.48C165.901 160.756 164.021 156.946 163.564 152.66C163.055 147.875 164.337 142.739 167.424 138.995C169.858 136.042 173.172 134.426 176.89 133.823C182.997 132.831 189.64 133.292 195.828 133.318L222.321 133.331L323.21 133.354L357.063 133.509C363.026 133.509 369.144 133.762 375.081 133.221C367.267 115.553 349.161 96.1393 333.63 84.8627C305.007 64.0799 269.711 56.7923 235.006 62.3888Q233.365 62.6665 231.73 62.9837Q230.096 63.3009 228.47 63.6573Q226.843 64.0137 225.226 64.4091Q223.609 64.8046 222.002 65.2388Q220.395 65.673 218.798 66.1458Q217.202 66.6186 215.618 67.1297Q214.033 67.6407 212.462 68.1898Q210.89 68.7388 209.332 69.3255Q207.774 69.9122 206.23 70.5363Q204.687 71.1603 203.159 71.8213Q201.631 72.4823 200.119 73.1798Q198.608 73.8774 197.113 74.6111Q195.619 75.3449 194.143 76.1144Q192.666 76.8839 191.209 77.6887Q189.752 78.4934 188.314 79.3331Q186.876 80.1727 185.459 81.0467Q184.042 81.9207 182.647 82.8285Q181.251 83.7363 179.878 84.6775Q178.505 85.6186 177.155 86.5925Q175.804 87.5665 174.478 88.5726Q173.152 89.5787 171.85 90.6165Q170.548 91.6542 169.271 92.723Q167.995 93.7918 166.745 94.891Q165.494 95.9902 164.271 97.1192Q163.047 98.2481 161.851 99.4062Q160.655 100.564 159.487 101.751Q158.319 102.937 157.181 104.152Q156.042 105.366 154.932 106.607Q153.823 107.849 152.744 109.116Q151.665 110.384 150.616 111.677Q149.568 112.971 148.551 114.289Q147.534 115.607 146.549 116.949C135.018 132.981 127.207 152.115 123.283 171.424C119.116 191.934 120.088 212.875 120.094 233.679L120.133 299.579Q120.201 308.931 119.994 318.28C119.826 324.861 119.2 331.694 120.309 338.22C121.158 343.211 123.608 348.185 127.863 351.118C130.889 353.204 134.488 354.036 138.112 354.251C144.131 354.609 150.294 354.349 156.325 354.342L188.356 354.35L287.755 354.408C309.04 354.397 330.349 354.64 351.631 354.396C360.193 354.298 369.419 355.06 377.824 353.453C383.658 352.337 388.367 349.238 390.873 343.741C394.389 336.024 393.435 322.079 393.437 313.511L393.425 260.865C393.419 252.413 392.588 243.45 393.632 235.072C394.095 231.356 395.13 227.719 397.283 224.609C399.991 220.697 404.251 218.564 408.862 217.784C424.01 215.222 446.744 226.22 459.006 234.969Q460.196 235.824 461.364 236.708Q462.533 237.591 463.68 238.503Q464.827 239.415 465.951 240.354Q467.075 241.294 468.177 242.26Q469.278 243.227 470.355 244.22Q471.432 245.213 472.485 246.231Q473.538 247.25 474.566 248.295Q475.594 249.339 476.596 250.408Q477.598 251.476 478.574 252.569Q479.549 253.662 480.498 254.779Q481.447 255.895 482.369 257.034Q483.29 258.173 484.184 259.334Q485.077 260.495 485.942 261.678Q486.807 262.86 487.643 264.064Q488.479 265.267 489.286 266.49Q490.092 267.713 490.869 268.955Q491.645 270.198 492.391 271.459Q493.138 272.72 493.853 273.999Q494.568 275.277 495.252 276.573Q495.936 277.869 496.588 279.181Q497.24 280.493 497.86 281.82Q498.48 283.147 499.068 284.49Q499.656 285.832 500.211 287.188Q500.765 288.544 501.287 289.913Q501.809 291.282 502.297 292.663Q502.785 294.045 503.24 295.438Q503.694 296.83 504.115 298.234Q504.535 299.637 504.922 301.051Q505.308 302.464 505.659 303.886Q506.011 305.309 506.328 306.739Q506.645 308.169 506.928 309.607Q507.21 311.045 507.457 312.489C508.974 321.633 511.605 335.645 505.767 343.662Q505.28 344.329 504.73 344.944Q504.179 345.559 503.569 346.116Q502.96 346.673 502.298 347.167Q501.636 347.66 500.927 348.085Q500.219 348.509 499.472 348.861Q498.725 349.213 497.947 349.489Q497.169 349.764 496.367 349.96Q495.565 350.157 494.747 350.272C490.235 350.917 485.148 349.715 481.516 346.925C472.592 340.07 475.373 330.133 474.154 320.682C473.781 316.45 472.616 312.039 471.369 307.989Q471.045 306.949 470.696 305.917Q470.347 304.886 469.973 303.863Q469.599 302.84 469.201 301.826Q468.802 300.813 468.379 299.809Q467.955 298.806 467.507 297.813Q467.06 296.82 466.588 295.839Q466.116 294.857 465.621 293.887Q465.125 292.917 464.606 291.96Q464.087 291.002 463.545 290.058Q463.002 289.113 462.437 288.182Q461.872 287.251 461.284 286.334Q460.697 285.417 460.087 284.515Q459.477 283.612 458.845 282.725Q458.214 281.838 457.561 280.966Q456.908 280.095 456.233 279.239Q455.559 278.384 454.864 277.545Q454.17 276.707 453.455 275.885Q452.74 275.064 452.005 274.26Q451.27 273.456 450.516 272.67Q449.761 271.884 448.988 271.117Q448.215 270.35 447.423 269.602Q446.632 268.854 445.822 268.126Q445.012 267.397 444.185 266.689Q443.358 265.98 442.514 265.292Q441.67 264.604 440.809 263.937Q439.948 263.269 439.072 262.623Q438.195 261.977 437.303 261.352Q436.411 260.728 435.503 260.125Q434.596 259.522 433.675 258.942Q432.753 258.362 431.818 257.804Q430.882 257.246 429.933 256.711Q428.985 256.176 428.023 255.665Q428.041 255.967 428.054 256.27C428.577 270.947 428.142 285.768 428.154 300.457L428.178 322.106C428.189 330.159 428.59 338.614 426.669 346.491C424.341 356.034 419.184 365.087 412.436 372.195Q411.604 373.08 410.733 373.927Q409.862 374.773 408.954 375.58Q408.045 376.386 407.101 377.15Q406.157 377.915 405.179 378.635Q404.202 379.356 403.192 380.032Q402.183 380.708 401.144 381.337Q400.106 381.967 399.039 382.549Q397.973 383.131 396.882 383.664Q395.79 384.197 394.676 384.68Q393.561 385.163 392.426 385.595Q391.291 386.027 390.137 386.407Q388.984 386.788 387.814 387.116Q386.644 387.443 385.461 387.718Q384.278 387.992 383.083 388.213Q381.889 388.433 380.686 388.6Q379.483 388.766 378.273 388.878C372.077 389.429 365.881 389.105 359.673 389.06C349.483 388.987 339.237 388.836 329.051 389.128C329.382 400.771 329.215 412.478 329.133 424.126C329.089 430.294 328.83 436.581 329.217 442.735C334.847 449.445 341.486 455.613 347.682 461.822C351.133 465.28 355.507 470.327 359.414 472.936C363.56 473.092 367.726 472.856 371.875 472.83L395.012 472.767C401.279 472.742 408.072 472.233 414.183 473.741Q415.204 474.002 416.182 474.394Q417.159 474.786 418.078 475.303Q418.996 475.819 419.84 476.45Q420.683 477.082 421.437 477.818Q422.043 478.416 422.587 479.071Q423.131 479.725 423.608 480.43Q424.086 481.134 424.492 481.882Q424.898 482.63 425.229 483.414Q425.56 484.198 425.813 485.011Q426.065 485.824 426.237 486.658Q426.409 487.491 426.498 488.337Q426.588 489.184 426.594 490.035Q426.605 490.902 426.531 491.767Q426.456 492.631 426.296 493.484Q426.136 494.336 425.892 495.169Q425.649 496.001 425.323 496.806Q424.998 497.61 424.595 498.378Q424.192 499.146 423.714 499.87Q423.237 500.594 422.69 501.268Q422.143 501.941 421.532 502.557C419.209 504.866 416.505 506.359 413.324 507.11C406.187 508.795 397.983 507.994 390.66 507.975L359.94 507.955C347.003 507.96 343.949 508.205 334.529 498.77C330.83 495.063 327.301 491.189 323.617 487.465C315.978 479.74 298.75 463.798 294.848 454.336C291.916 447.226 293.192 427.5 293.197 419.239L293.176 389.049L216.765 389.044L216.781 432.897C216.801 439.923 217.538 447.359 216.626 454.318C216.371 456.262 215.526 458 214.487 459.641C211.142 464.923 206.057 469.399 201.565 473.687Q195.919 478.987 190.499 484.519L179.142 496.052C176.508 498.754 173.96 501.69 170.982 504.02C168.919 505.635 166.642 506.543 164.092 507.084C158.471 508.275 152.256 507.93 146.532 507.909L127.195 507.859L112.747 507.94C109.002 507.977 105.227 508.129 101.5 507.684C98.3093 507.302 95.1888 506.432 92.4871 504.646C88.5646 502.053 86.3828 498.182 85.4855 493.632C84.5628 488.953 85.4658 484.223 88.168 480.271C90.2476 477.23 93.3195 475.097 96.8233 474.009C103.114 472.055 113.622 472.856 120.457 472.839C126.637 472.824 132.844 472.696 139.019 472.861C142.693 472.959 146.902 473.668 150.487 472.885C152.203 472.51 153.742 471.255 155.06 470.137C159.259 466.576 162.954 462.227 166.856 458.326C170.9 454.283 179.093 447.37 181.844 442.949C181.891 442.874 181.936 442.797 181.981 442.721C182.32 424.862 181.98 406.943 182.026 389.078C172.913 388.888 163.763 389.057 154.646 389.054C144.589 389.052 133.805 389.3 124.078 386.439Q121.505 385.658 119.026 384.618Q116.547 383.578 114.188 382.29Q111.828 381.001 109.613 379.478Q107.398 377.954 105.351 376.212C97.9088 370.002 91.669 362.572 88.2485 353.4C83.1007 339.597 84.3169 320.659 84.3003 305.906L84.3177 275.154C84.3784 269.02 84.7774 262.774 84.235 256.661C80.1264 258.208 76.0156 260.8 72.4446 263.347C54.4718 276.168 43.3274 297.259 39.4984 318.718C38.2043 325.97 39.2626 334.502 35.7903 341.154C33.6537 345.247 29.7336 348.395 25.3323 349.745C20.6539 351.18 15.5533 350.396 11.2948 348.066C7.44019 345.956 4.50644 342.521 3.30437 338.269C1.64028 332.382 2.32572 325.854 3.15114 319.884Q3.58062 316.716 4.15716 313.572Q4.73369 310.428 5.45604 307.315Q6.17839 304.201 7.04498 301.124Q7.91157 298.047 8.92053 295.014Q9.92948 291.981 11.0786 288.998Q12.2277 286.016 13.5145 283.089Q14.8013 280.163 16.223 277.301Q17.6447 274.438 19.1982 271.644C30.5212 251.427 47.2478 234.224 68.8217 225.13C73.8633 223.005 79.0783 221.56 84.332 220.072C84.0112 201.631 84.757 183.538 88.5361 165.435C97.7265 121.41 122.455 81.6272 160.316 56.8295L152.307 40.8563C149.311 34.8532 145.155 27.836 143.923 21.2013C143.162 17.1015 144.225 12.6391 146.584 9.21977C149.441 5.07695 153.645 2.74477 158.516 1.81916Z"/>
</svg>
