<svg xmlns="http://www.w3.org/2000/svg" width="32" height="32" fill="none"><g fill="#B0B0B0" clip-path="url(#a)"><path d="M24.977 17.372c-1.529.121-1.914-2.177-.391-2.548.423-.103.92-.057 1.355-.057h1.88c1.333.059 1.897 1.452 1.055 2.242-.533.501-1.415.363-2.078.363-.606 0-1.216.017-1.821 0ZM30.587 11.53H27.92c-.375.001-.988.037-1.341-.022-1.382-.234-1.37-2.352.178-2.532.263-.01.53-.001.794-.001h2.495c.23 0 .471-.013.698.026 1.406.241 1.43 2.384-.158 2.53ZM28.35 23.016h-5.386c-.277 0-.566.018-.84-.031-1.028-.185-1.417-1.445-.633-2.226.452-.45 1.211-.356 1.794-.355l1.174.001h5.382c.529 0 1.137-.05 1.547.355.678.67.46 1.94-.51 2.202-.356.096-.78.055-1.146.055h-1.383ZM11.111 29.337c-.708.021-1.107-.584-1.556-1.03l-7.292-7.338c-.42-.427-.864-.84-1.295-1.257-1.197-1.16-1.117-1.265-.024-2.344l7.728-7.66c.467-.47 1.394-1.506 1.845-1.774 1.155-.547 2.26.693 1.656 1.682-.255.417-1.13 1.16-1.525 1.557l-6.734 6.641c-.228.23-.52.452-.697.722l8.16 8.162c.228.232.485.462.69.715.622.772-.015 1.838-.956 1.924Z"/><path d="M12.172 24.119c-1.254.072-1.723-1.512-.814-2.206.337-.258.832-.307 1.23-.435.928-.3 1.804-.709 2.637-1.217 4.603-2.808 6.818-7.685 5.702-13.04-.11.187-.17.428-.248.632-1.343 3.516-4.354 6.231-8.074 6.941-.684.13-1.247.197-1.686-.468-.387-.587-.15-1.418.458-1.752.264-.145.815-.188 1.14-.266a7.936 7.936 0 0 0 2.5-1.077c2.685-1.862 4.428-5.112 3.819-8.42-.108-.585-.297-1.075.12-1.603.403-.51 1.195-.643 1.712-.222.88.717 2.066 3.531 2.39 4.64 1.09 3.723.72 7.956-1.204 11.353-1.57 2.768-4.094 4.934-6.98 6.244-.754.342-1.88.819-2.702.896Z"/></g><defs><clipPath id="a"><path fill="#fff" d="M32 32H0V0h32z"/></clipPath></defs></svg>