<svg className="svg-icon" xmlns="http://www.w3.org/2000/svg" width="32" height="32" fill="none"><path fill="#B0B0B0" d="M16.409 32.64c-.091.017-.2.016-.293.015a1.821 1.821 0 0 1-1.005-.315c-.384-.28-.72-.623-1.068-.947-.514-.477-1.03-.948-1.537-1.434a408.307 408.307 0 0 1-4.4-4.254l-4.99-4.846c-.46-.444-.923-.884-1.388-1.323-.283-.268-.578-.53-.846-.814-.437-.462-.891-.998-.882-1.684.006-.388.16-.72.394-1.015.205-.258.443-.48.675-.711l.791-.804 3.134-3.202 9.624-9.858c.489-.494 1.048-.807 1.745-.792a1.903 1.903 0 0 1 .735.171 1.816 1.816 0 0 1 .406.253 1.921 1.921 0 0 1 .21.197c.243.263.373.559.44.913.084.447.069.912.069 1.366V4.91c0 1.398.021 2.8-.003 4.197.632.015 1.242.045 1.722.529.345.348.532.853.537 1.348.004.47-.157.935-.478 1.27-.634.665-1.625.578-2.452.569-.35-.005-.7.006-1.05.005-.526-.001-.985-.105-1.363-.507-.237-.252-.362-.537-.43-.878-.14-.697-.056-1.63-.05-2.351L14.65 6.39c-.24.218-.462.468-.694.696-.865.864-1.725 1.733-2.58 2.608-1.719 1.734-3.396 3.512-5.123 5.238l-1.331 1.324c-.251.246-.504.513-.776.732.294.255.562.554.84.828l1.56 1.521 5.256 5.125 1.784 1.74c.354.344.699.702 1.068 1.029.014-.474.001-.952 0-1.426v-1.976c-.006-.6-.061-1.249.038-1.841.053-.32.163-.63.378-.87.623-.7 1.745-.42 2.55-.363.446.029.893.036 1.34.02 3.492-.134 6.998-1.447 9.437-4.11a8.75 8.75 0 0 0 .899-1.164c.19-.295.351-.628.587-.888.206-.227.432-.344.735-.351.386-.01.748.17 1.024.442.234.232.352.516.358.853.007.45-.158.901-.32 1.31a10.877 10.877 0 0 1-.902 1.788 10.624 10.624 0 0 1-1.214 1.576c-2.096 2.23-4.986 3.621-7.931 4.116-1.129.19-2.27.246-3.41.26-.029 1.361-.006 2.73-.002 4.091.003.698.063 1.412-.034 2.105-.051.368-.16.77-.375 1.074-.337.478-.858.674-1.403.763Z"/></svg>