<svg xmlns="http://www.w3.org/2000/svg" width="32" height="32" fill="none"><path fill="#B0B0B0" d="M15.591.67c.091-.016.2-.015.293-.014.337.002.727.113 1.005.314.384.28.72.623 1.068.947.514.478 1.03.949 1.537 1.435a408.503 408.503 0 0 1 4.4 4.254l4.99 4.846c.46.443.923.884 1.388 1.322.283.268.578.53.846.815.437.461.891.998.882 1.683-.006.388-.16.72-.394 1.015-.205.259-.443.48-.675.712l-.791.804-3.134 3.202-9.624 9.858c-.489.494-1.048.806-1.745.792a1.87 1.87 0 0 1-1.14-.424 1.978 1.978 0 0 1-.211-.198 1.764 1.764 0 0 1-.44-.912c-.084-.448-.069-.912-.069-1.367V28.4c0-1.397-.021-2.8.003-4.197-.631-.015-1.242-.044-1.722-.528-.345-.348-.531-.853-.537-1.349-.004-.47.157-.935.478-1.27.634-.664 1.624-.578 2.452-.568.35.004.7-.007 1.05-.006.526.002.985.106 1.363.508.237.251.362.536.43.878.14.697.056 1.63.05 2.35l.006 2.703c.24-.218.461-.468.694-.697a306.44 306.44 0 0 0 2.58-2.608c1.719-1.734 3.396-3.511 5.123-5.237l1.331-1.325c.251-.246.504-.513.776-.732-.294-.254-.562-.553-.84-.828l-1.56-1.52-5.256-5.125-1.784-1.74c-.354-.344-.699-.702-1.068-1.03-.014.475-.001.952 0 1.427V9.48c.006.6.061 1.25-.038 1.842-.053.319-.163.63-.378.87-.622.7-1.745.42-2.55.362a13.324 13.324 0 0 0-1.34-.019c-3.492.133-6.998 1.447-9.437 4.11a8.749 8.749 0 0 0-.899 1.163c-.19.295-.351.629-.587.889-.206.227-.432.343-.735.351-.386.01-.748-.17-1.023-.442A1.183 1.183 0 0 1 0 17.753c-.007-.449.158-.9.32-1.31a10.838 10.838 0 0 1 .902-1.787 10.55 10.55 0 0 1 1.214-1.577c2.096-2.23 4.986-3.62 7.931-4.116 1.129-.19 2.27-.245 3.41-.26.029-1.36.006-2.729.002-4.09-.003-.698-.063-1.412.034-2.105.051-.369.16-.77.375-1.074.337-.479.858-.674 1.403-.763Z"/></svg>