<svg xmlns="http://www.w3.org/2000/svg" width="24" height="24" fill="none"><path fill="#F0F0F0" d="M11.843.095c1.546-.056 2.896 1.182 2.86 2.76-.005.231-.05.456-.067.686.113.033.227.086.338.13 2.82 1.127 4.95 4.004 5.03 7.06.06 2.23-.274 3.995.817 6.094.454.875.798 1.281.958 2.34.055.369.088.684-.148.998-.387.517-1.123.368-1.686.368h-3.723c-.202-.001-.407-.013-.607.02-.192 1.732-1.67 2.997-3.383 3.109-3.47.027-3.842-3.065-3.918-3.09-.15-.047-.78-.018-.98-.018H3.559c-.593 0-1.22-.01-1.34-.778-.179-1.125.731-2.343 1.17-3.307.58-1.276.648-2.457.647-3.84v-1.255c0-.306-.005-.614.017-.919.193-2.579 1.72-5.013 3.956-6.309.36-.208 1.022-.545 1.401-.603-.39-1.677.697-3.31 2.433-3.446ZM4.152 18.793H19.142c.251 0 .513-.021.762 0-.126-.521-.466-.97-.708-1.44-.7-1.365-.947-2.779-.946-4.296v-1.452c0-.318.011-.64-.01-.958-.132-2.001-1.324-3.825-3.02-4.863-1.146-.702-2.206-.924-3.514-.918-2.227.122-4.146 1.369-5.19 3.318-.975 1.823-.676 3.419-.738 5.402-.038 1.207-.321 2.348-.785 3.46-.255.613-.593 1.153-.841 1.747Zm9.206 2.664c.298-.282.427-.518.552-.905-.208-.01-.416 0-.624 0H10.8c-.226 0-.456-.009-.682 0l-.029.005c-.012.055.203.468.252.546.633 1.003 2.133 1.116 3.018.354ZM11.088 3.07c.361.006.718-.05 1.08-.036.25-.004.5.024.749.036.012-.762-.16-1.342-1.074-1.275-.747.148-.73.698-.754 1.275Z"/></svg>