<?xml version="1.0" encoding="utf-8" ?>
<svg xmlns="http://www.w3.org/2000/svg" xmlns:xlink="http://www.w3.org/1999/xlink" width="1016" height="1016">
	<path fill="#96C93D" transform="matrix(0.992188 0 0 0.992188 0 0.000488281)" d="M393.058 73.1438C456.058 72.9704 519.124 80.5782 577.95 104.093C603.352 114.246 599.852 115.489 627.282 115.585C791.852 116.157 949.546 210.144 1004.27 370.002C1053.89 514.98 995.528 679.862 872.278 768.536C857.2 779.386 841.562 787.38 825.52 796.582C834.458 822.86 833.168 843.048 853.06 867.896C864.952 882.752 883.22 889.778 880.228 912.34C875 951.78 823.408 946.636 794.75 942.44C733.994 933.542 674.45 902.244 637.456 852.498L630.304 852.498C580.974 852.87 536.2 843.112 491.936 821.254C449.57 800.334 478.34 802.81 430.468 804.718C418.062 805.214 405.482 804.808 393.058 804.786C385.914 810.028 380.482 818.372 374.048 824.628C326.81 870.574 263.676 900.706 196.885 896.768C189.24 896.318 180.748 895.932 173.334 894.048C151.054 888.386 140.067 861.636 153.247 842.262C157.244 836.388 162.695 831.286 167.411 825.984C185.484 805.668 196.468 781.858 203.174 755.55C198.859 752.124 193.334 749.686 188.548 746.932C68.9336 678.08 -9.63532 543.976 4.67286 404.292C24.91 206.726 204.666 79.619 393.058 73.1438ZM402.648 139.433C230.224 140.926 69.5086 264.786 71.512 443.944C72.7036 550.486 138.678 640.918 228.816 692.012C251.012 704.592 275.05 708.772 275.528 741.08C275.918 767.61 264.366 796.418 253.074 820.346C283.968 815.072 322.168 783.002 339.542 757.444C357.484 732.118 374.53 735.484 401.966 735.512C517.36 735.626 630.324 693.462 700.538 597.572C787.53 478.77 766.74 327.8 658.752 230.656C593.566 172.017 491.072 132.847 402.648 139.433ZM724.12 197.58C726.95 203.77 736.24 210.476 740.836 215.986C897.162 403.442 825.934 655.44 611.412 758.926C605.408 761.822 574.928 773.26 572.794 775.82C576.482 782.164 625.05 783.572 632.174 783.428C663.71 782.79 669.39 779.244 689.568 807.914C701.604 825.02 718.052 839.298 735.724 850.298C747.244 857.724 760.488 863.806 773.598 867.916C762.522 840.786 737.274 774.838 767.158 752.022C776.414 744.956 789 741.236 799.346 735.796C840.528 714.138 876.856 680.4 903.166 642.302C1023.44 468.14 917.988 247.434 724.12 197.58Z"/>
	<path fill="#96C93D" transform="matrix(0.992188 0 0 0.992188 0 0.000488281)" d="M169.986 403.586C184.113 403.202 198.349 403.564 212.484 403.574L333.864 403.546C340.79 403.526 348.414 402.908 355.258 403.9C397.336 410.006 397.978 469.436 354.106 472.762C342.108 473.63 329.59 472.772 317.534 472.764L187.375 472.736C173.072 472.766 161.112 475.054 148.802 465.774C123.971 447.056 135.223 407.896 169.986 403.586Z"/>
	<path fill="#96C93D" transform="matrix(0.992188 0 0 0.992188 0 0.000488281)" d="M473.586 403.586C486.352 403.038 499.382 403.568 512.172 403.578L634.93 403.556C650.468 403.554 667.33 401.328 680.57 411.22C707.57 431.396 695.356 467.942 659.482 472.762C644.646 472.484 629.752 472.76 614.91 472.764L492.182 472.78C483.804 472.78 475.108 473.158 466.806 471.922C429.246 466.334 426.304 408.548 473.586 403.586Z"/>
	<path fill="#96C93D" transform="matrix(0.992188 0 0 0.992188 0 0.000488281)" d="M308.96 529.52C323.918 529.086 339.028 529.506 354.002 529.504L495.812 529.524C507.126 529.532 519.398 529.052 530.604 530.54C571.288 535.936 572.108 595.09 525.204 598.92L330.3 598.934C320.794 598.93 310.884 599.36 301.436 598.246C266.804 594.158 255.642 536.112 308.96 529.52Z"/>
	<path fill="#96C93D" transform="matrix(0.992188 0 0 0.992188 0 0.000488281)" d="M311.404 276.146L508.22 276.114C516.858 276.104 526.102 275.478 534.636 276.844C573.304 283.038 573.29 346.682 523.374 347.042L331.66 347.056C315.18 347.08 296.976 349.244 283.662 337.412C259.478 315.924 274.818 277.248 311.404 276.146Z"/>
</svg>
