<svg xmlns="http://www.w3.org/2000/svg" width="24" height="24" fill="none"><g fill="#B0B0B0" clip-path="url(#a)"><path d="M21.077 14.196h.01c1.76-.074 3.07 1.31 3.128 3.037.008.241.002.484.002.725v2.512c0 1.102-.032 1.92-.828 2.776-.551.592-1.17.88-1.98.909-1.541.105-3.014-1.234-3.125-2.757-.019-.258-.007-.521-.007-.78v-2.786c0-.37-.018-.762.048-1.127.25-1.367 1.342-2.42 2.752-2.51ZM21.03.562c.08-.019.51-.018.593-.012 1.312.1 2.432 1.284 2.58 2.567.023.2.008.41.007.61v2.944c0 1.193.089 1.838-.694 2.82-.502.632-1.233.987-2.032 1.079-.74.037-1.397-.137-2.004-.576-1.082-.785-1.208-1.709-1.208-2.97V5.947c0-.839-.015-1.68.001-2.519.029-1.475 1.233-2.902 2.757-2.867ZM11.738 18.6c2.237-.25 3.869 1.756 3.048 3.901-.13.34-.336.6-.595.857-.877.873-1.653.841-2.795.84H3.67c-.975.008-1.816-.221-2.516-.95-1.053-1.097-.977-2.905.121-3.94.815-.77 1.695-.71 2.726-.709h5.815c.639 0 1.283-.018 1.922 0ZM3.151 9.32c.688-.014 1.378 0 2.066 0h6.077c.48-.001.976-.03 1.45.054.773.136 1.54.684 1.934 1.361.413.711.408 1.732.118 2.485-.41 1.065-1.42 1.662-2.542 1.716H4.23c-1.178 0-1.92.1-2.846-.691-1.155-.986-1.303-2.775-.31-3.93.534-.62 1.267-.937 2.077-.996ZM2.95.562c.206-.01.418 0 .624 0h8.418c.56-.001 1.079.036 1.582.321 2.188 1.241 1.855 4.368-.444 5.175-.207.073-.423.107-.635.162-.244-.022-.502 0-.748 0H3.758c-.785 0-1.473-.015-2.144-.508C-.428 4.212.16.971 2.95.562Z"/></g><defs><clipPath id="a"><path fill="#fff" d="M.219.127h24v24h-24z"/></clipPath></defs></svg>