<svg xmlns="http://www.w3.org/2000/svg" width="45" height="45" fill="none"><path fill="#1A1A1A" d="M42.807 1.165c.711-.034 1.35.244 1.648.934.36.833-.209 2.112-.428 2.94l-7.78 28.612c-.234.823-.529 2.256-.82 2.988-.702 1.774-2.39.945-3.533.386-1.409-.688-2.841-1.34-4.262-2.002l-6.01-2.841c-.887-.413-1.948-1-2.828-1.347l-.035-.014c.488 2.162.882 4.76 1.5 6.847.353-.407 1.27-1.335 1.705-1.576.942.276 2.606 1.142 3.51 1.576-.166.208-.383.391-.574.577-1.087 1.057-2.154 2.14-3.221 3.218-1.034 1.042-2.397 2.872-3.891 1.09-.387-.65-.553-2.073-.722-2.854l-2.31-10.76c-1.14-.661-2.393-1.166-3.581-1.735L3.387 23.47C2.36 22.967.282 22.41.199 21.013c-.082-1.396 1.072-1.737 2.09-2.195L41.296 1.682c.494-.223.96-.492 1.512-.517ZM6.3 20.887c.715.434 1.82.87 2.605 1.245l7.742 3.791c.349.17.708.331 1.039.534.62-.466 1.185-1.038 1.74-1.58l7.518-7.447c1.017-.998 2.01-2.019 3.043-3.001.551-.537 1.928-2.044 2.557-2.359 1.582-.79 3.239 1.097 2.087 2.55-.203.257-.456.484-.688.715L21.091 28.049l8.249 3.98c1.138.545 2.307 1.044 3.428 1.624a85.83 85.83 0 0 1 .903-3.567l5.035-18.362c.206-.752 1.586-5.572 1.544-5.902L7.157 20.479c-.286.13-.588.243-.856.408Z"/></svg>