<svg xmlns="http://www.w3.org/2000/svg" width="120" height="121" fill="none"><g clip-path="url(#a)"><path fill="var(--svg-fill-color, #96C93D)" d="M49.004.854c6.788-.351 13.673 2.79 18.435 7.517 6.846 6.795 8.03 14.45 8.027 23.483v8.537c.626.055 4.604.072 5.017-.042 1.276-.353 5.657-3.905 7.497-5.124 3.034 3.081 6.41 7.8 9.122 11.236l5.646 7.117c.575.713 3.511 3.865 3.506 4.651v23.169c.001.759.087 1.549-.001 2.302-.959.888-2.152 1.635-3.208 2.406l-20.977 15.562c-3.493 2.622-5.796 4.054-8.84 7.22l-3.747 3.868c-1.489 1.749-4.779 5.315-6.483 6.746-1.504.097-3.08.001-4.593.001H39.916c-3.782 0-4.026.878-6.532-1.672L15.292 99.757c-.476-.467-1.014-.9-1.435-1.418l-.002-43.305c0-1.855-.127-3.826.105-5.666.547-4.338 4.195-8.06 8.474-8.843 0-4.589-.092-9.196-.002-13.783C22.707 12.778 35.022.59 49.004.854Zm-4.62 79.429h-21.95v9.755c.001 1.59.095 3.238 0 4.822 1.57 1.493 3.044 3.076 4.567 4.615l8.577 8.535c1.044 1.019 2.034 2.144 3.119 3.115 1.895.021 3.792-.001 5.688 0l9.642.001c1.555.001 3.158.082 4.71-.001 2.293-2.308 5.07-5.91 7.556-7.829-.644-.614-1.177-1.347-1.735-2.038L51.84 85.328c-1.066-1.352-2.817-3.984-4.043-5.045-1.137-.014-2.275-.004-3.412 0Zm3.928-70.906c-9.282.491-16.625 7.543-17.27 16.83-.12 1.73-.048 3.5-.048 5.234l.002 8.95h18.575l11.464-.002c1.934 0 3.882-.05 5.815.002l.002-8.79c-.002-6.698-.246-11.86-5.43-17.062-3.352-3.364-8.328-5.437-13.11-5.162Zm20.794 38.926c-3.229-.059-6.47 0-9.7.001H29.459c-2.974 0-6.986-.925-7.022 3.082l-.002 20.369c.662-.013 1.323-.03 1.985 0l15.487.002c.633 0 1.28.04 1.911-.002-.48-.815-1.137-1.455-1.695-2.207 2.14-1.679 4.414-3.2 6.602-4.818l19.973-14.557c.595-.423 2.289-1.46 2.621-1.923-.084.01-.135.016-.212.053Zm17.02-1.854c-1.29.899-2.54 1.857-3.818 2.774l-23.24 16.702c-2.427 1.743-4.816 3.54-7.276 5.238 1.707 2.516 3.713 4.863 5.583 7.259l2.479 3.16c.179.225 1.121 1.609 1.339 1.493.788-.746 1.766-1.353 2.647-1.989l25.037-18.169c2.107-1.564 4.777-3.214 6.72-4.865l-6.519-8.145c-.651-.805-2.212-2.931-2.952-3.458ZM97.88 66.833c-1.637.79-2.958 1.996-4.412 3.059l-24.82 18.007c-.796.59-1.54 1.252-2.354 1.816 1.252 1.556 2.467 3.157 3.743 4.691.743.929 1.92 2.595 2.769 3.334L95.23 81.35c.883-.65 1.853-1.274 2.649-2.026 0-1.154.058-12.4.013-12.487l-.013-.003Z"/></g><defs><clipPath id="a"><path fill="#fff" d="M0 .5h120v120H0z"/></clipPath></defs></svg>