<svg xmlns="http://www.w3.org/2000/svg" width="121" height="120" fill="none"><path fill="#96C93D" d="M43.214.504C57.867-.382 69.8 13.444 67.824 27.9c-.803 5.877-4.153 11.502-8.77 15.193-1.276 1.02-2.728 1.725-4.02 2.705 7.316.632 13.775 3.638 19.054 8.823 1.547 1.52 4.526 5.214 5.34 7.148 1.162 2.76-.753 5.939-3.88 5.901-2.678-.032-3.65-2.106-4.973-4.038-4.245-6.199-10.66-9.406-18.043-9.428H40.994c-6.596-.002-11.293-.39-17.215 3.165-7.28 4.37-11.251 11.754-11.274 20.29l-.002 21.184c0 1.088-.073 2.244.138 3.316.84 4.256 5.562 3.437 8.657 3.436l9.459.002 25.72-.002c2.12 0 4.356-.29 6.007 1.311 1.672 1.622 1.4 4.294-.194 5.867-1.694 1.672-4.313 1.13-6.462 1.127l-38.385.002c-6.53-.009-11.826-3.499-13.314-10.173-.36-1.615-.296-3.26-.297-4.903l.003-20.086c.077-15.545 9.864-29.272 25.578-32.321 1.413-.275 2.789-.517 4.235-.508-.721-.519-1.542-.88-2.302-1.337-6.684-4.02-10.837-11.718-11.044-19.458C19.951 11.996 29.952.84 43.214.504Zm.89 39.34c13.595.263 20.424-16.638 11.05-26.304-2.748-2.833-7.231-5.186-11.287-4.809-14.129.085-20.432 17.3-10.654 26.811 2.704 2.63 7.074 4.57 10.89 4.302Z"/><path fill="#96C93D" d="M90.935 67.327c1.6-.032 3.235-.044 4.826.15 17.153 2.09 27.168 21.618 19.588 37.133-4.135 8.462-11.885 13.307-21.063 14.096-6.71.167-12.292-1.287-17.634-5.727C59.846 99.009 66.41 71.23 88.54 67.569c.79-.13 1.599-.175 2.396-.242Zm2.483 44.883c10.73-.252 18.45-9.717 18.166-20.218-.266-9.854-9.64-19.34-19.762-18.345-10.607.162-18.565 9.416-18.394 19.777.175 10.547 9.45 19.326 19.99 18.786Z"/><path fill="#96C93D" d="M92.094 78.181c4.138-.378 4.19 3.163 4.187 6.13l-.002 5.26 4.717-.001c1.698-.003 3.508-.256 4.861 1.001 1.867 1.736 1.151 4.964-1.373 5.627-1.19.313-2.562.19-3.786.19l-4.419-.003.004 5.369c.004 2.938.08 5.574-3.611 5.979-3.853-.024-3.523-3.939-3.523-6.514l.002-4.834c-2.761-.133-8.566.786-10.45-1.329-1.702-1.908-.784-4.924 1.805-5.415 1.159-.22 7.259-.178 8.645-.07.04-1.829-.004-3.665-.003-5.495.002-2.392-.19-5.438 2.946-5.895Z"/></svg>