<svg xmlns="http://www.w3.org/2000/svg" width="24" height="24" fill="none"><path fill="#F0F0F0" d="M5.12.07C6.52.053 6.97.475 7.77 1.634c.182.266.369.531.559.792l1.869 2.588c.289.406.6.803.865 1.225 1.36-.261 2.827.153 3.916.985.547.418.805.825 1.219 1.369l1.3 1.73c.12.159.236.32.353.482.316.44.274.367.779.564.491.191 2.78.912 3.024 1.28.552.83-.336 1.206-.876 1.551-.402.257-.794.527-1.192.79l-3.097 2.053c-.438.291-.868.594-1.31.88a83.732 83.732 0 0 1-3.858 2.545l-.852.533c-.256.162-.503.38-.821.386a.78.78 0 0 1-.772-.669c-.068-.485.251-2.481.304-3.074.02-.229.072-.468.067-.698v-.017A48.41 48.41 0 0 0 8.01 15.14c-.477-.666-1.006-1.324-1.287-2.102-.439-1.212-.325-2.717.28-3.86.068-.128.146-.252.208-.383-.112-.185-.262-.363-.39-.538L3.643 3.93c-.346-.469-.579-.739-.645-1.344C2.857 1.313 3.877.203 5.12.07Zm8.036 13.703c.149-.118.312-.218.47-.323l.769-.507c.662-.432 1.394-.919 2.04-1.38-.497-.642-.968-1.303-1.451-1.954-.257-.345-.475-.715-.8-1.001-1.05-.924-2.503-1.045-3.766-.515-.194-.207-.35-.476-.514-.707L6.69 2.912c-.405-.552-.702-1.331-1.455-1.258-.226.071-.406.183-.518.398-.252.485.105.798.375 1.172l3.702 5.13c.133.188.29.372.395.577-.943 1.02-1.468 2.343-.924 3.719.172.435.44.775.705 1.153l.808 1.156c.166.236.342.467.493.711.294-.18.577-.374.864-.565l1.087-.72c.283-.19.64-.456.934-.612Zm-2.496 5.194c.332-.183.637-.42.97-.598l4.877-3.276c.534-.355 2.255-1.39 2.647-1.817-.321-.096-1.316-.523-1.57-.541-.342.198-.665.437-.994.656l-4.314 2.883c-.444.291-.909.568-1.336.883-.193.142-.26 1.533-.28 1.81ZM17.154 18.25c.808-.058.809.678 1.012 1.197.302.77.911 1.387 1.632 1.778.157.086.33.154.476.258.632.454.326 1.34-.397 1.438-.562.02-1.232-.453-1.66-.778a4.594 4.594 0 0 1-1.628-2.305c-.22-.683-.374-1.473.565-1.588ZM19.28 16.445c.39.01.735.335 1.061.52.473.27.926.442 1.46.547.312.062.656.045.915.256.57.464.268 1.373-.447 1.425-.173.036-.395-.023-.568-.052-.745-.124-3.011-.88-3.145-1.794-.07-.471.27-.84.724-.902ZM14.622 19.55c.48-.025.826.318.9.776.142.874-.36 3.178-1.44 3.353a.823.823 0 0 1-.888-.67c-.088-.554.81-1.195.752-2.308-.027-.529.007-1.059.676-1.15Z"/></svg>