<svg xmlns="http://www.w3.org/2000/svg" width="24" height="24" fill="none"><g fill="#B0B0B0" clip-path="url(#a)"><path d="M11.536.072c.447 0 .899-.013 1.345.023C19.5.625 24.656 6.58 23.85 13.308c-.55 4.604-3.581 8.47-7.98 9.977-1.2.411-2.102.528-3.376.648-.49 0-.976.008-1.466-.034-4.418-.375-8.216-3.149-9.97-7.195-1.85-4.267-.961-9.28 2.155-12.717C5.394 1.582 8.31.231 11.536.072Zm.77 21.737c.73-.059 1.45-.132 2.164-.304 5.381-1.294 8.556-7.027 6.936-12.32-.583-1.903-1.547-3.383-3.065-4.673-1.936-1.645-4.147-2.371-6.646-2.364-1.454.08-2.808.4-4.103 1.06-3.45 1.759-5.659 5.398-5.435 9.296.303 5.276 4.851 9.542 10.149 9.305Z"/><path d="M16.37 6.507c.938-.085 1.5.932.921 1.685-.171.222-.39.418-.59.615l-1.076 1.059c-.66.653-1.483 1.593-2.198 2.119.387.293.716.648 1.059.99l1.512 1.527c.404.41.872.79 1.227 1.243a1.039 1.039 0 0 1-1.389 1.523c-.254-.163-.614-.585-.841-.817l-2.623-2.618c-.457-.45-.344-.41-.795.05l-3.032 3.049c-.244.247-.428.449-.785.516l-.032.002c-.843.064-1.477-.807-1.087-1.462.199-.334.873-.954 1.164-1.242.698-.688 1.384-1.39 2.067-2.094.213-.22.461-.42.661-.651l.014-.016c-.253-.21-.47-.452-.701-.684L7.38 8.811c-.211-.212-.528-.473-.682-.721-.603-.978.567-1.975 1.433-1.392.239.161.449.382.655.583l3.216 3.19c.49-.42.942-.894 1.396-1.353l1.981-1.982c.31-.306.541-.555.99-.629Z"/></g><defs><clipPath id="a"><path fill="#fff" d="M0 0h24v24H0z"/></clipPath></defs></svg>