<?xml version="1.0" encoding="utf-8" ?>
<svg xmlns="http://www.w3.org/2000/svg" xmlns:xlink="http://www.w3.org/1999/xlink" width="1016" height="1016">
	<path fill="#96C93D" transform="scale(1.98438 1.98438)" d="M376.972 226.265L376.98 199.237C376.98 190.573 379.388 171.813 366.742 170.36C363.776 170.019 360.613 170.215 357.627 170.219L108.518 170.327C96.8554 170.308 94.2839 164.975 86.7609 157.392L54.3879 124.499C52.2541 122.365 49.7326 120.097 48.2538 117.439C45.8678 113.152 45.4179 74.7389 47.8106 68.3674C49.878 62.862 58.7979 56.2986 62.9324 52.1588L87.2348 27.4195C103.623 11.0459 108.17 15.4126 131.53 15.4125L164.529 15.4208L341.736 15.4213C362.861 15.4154 363.293 11.5437 378.784 27.5223C388.138 37.1701 397.886 46.3555 407.431 55.8043C423.07 71.2844 419.599 72.8911 419.569 93.6482C419.518 128.378 416.853 115.47 398.302 138.425L398.469 138.587C417.508 157.468 421 160.924 420.989 188.101L420.981 271.742L460.025 271.739C475.403 271.739 499.125 267.084 506.944 283.214C511.082 291.75 509.278 317.786 509.278 327.557L509.264 443.243C509.264 458.874 514.317 489.161 491.652 490.705C485.784 491.105 479.679 490.778 473.791 490.779L381.826 490.777C375.978 490.776 352.256 491.844 347.705 490.051C331.152 483.53 332.968 470.474 332.969 455.89L332.975 307.845C332.976 299.647 331.114 289.067 335.188 281.552C343.723 265.806 364.74 274.594 376.303 271.205L376.264 270.976C370.697 268.951 325.427 271.204 315.081 271.206L79.5137 271.216C72.8388 271.216 66.1297 270.975 59.4618 271.063C42.8853 271.282 45.8701 288.071 45.8757 299.449C45.8809 309.938 42.1117 331.585 54.1472 335.935C59.7936 337.976 89.1146 337.143 97.5302 337.14L267.957 337.126C273.918 337.123 281.303 336.582 287.097 337.425C311.817 341.017 311.746 375.835 288.762 380.205C284.587 380.999 280.02 380.666 275.776 380.663L180.938 380.645L74.3871 380.633C53.8824 380.58 45.8673 378.076 45.8702 400.935L45.8914 414.452C45.9073 421.809 45.4591 429.393 45.9051 436.722C46.8131 451.644 64.113 448.833 73.9713 448.813L264.466 448.806C272.337 448.806 280.562 448.345 288.373 449.391C312.79 452.66 311.402 489.966 285.298 490.779C279.285 490.966 273.214 490.78 267.196 490.774L73.8703 490.784C52.8398 490.785 35.5591 493.304 18.8778 477.587C-0.428612 459.397 2.49557 435.456 2.48599 411.579C2.47838 392.58 1.78224 371.754 15.8248 356.986C5.75741 344.162 2.68099 332.639 2.51059 316.504L2.49014 291.558C2.49062 285.677 2.21473 279.664 2.76515 273.811C4.98477 250.206 24.1035 230.909 47.2484 227.148C53.1864 226.183 59.206 226.261 65.2012 226.259L376.972 226.265ZM134.158 57.5334C84.7912 60.5567 87.1928 121.229 123.932 126.185C131.136 127.157 139.855 126.571 147.237 126.565L336.081 126.56C383.585 125.665 384.038 64.5773 343.232 58.2899C334.638 56.9658 325.507 57.5222 316.83 57.5259L134.158 57.5334ZM376.972 316.451L376.972 360.736L456.306 360.745C459.552 360.748 462.91 360.931 466.141 360.736C466.282 355.669 466.147 350.585 466.144 345.516L466.141 316.451L376.972 316.451ZM376.972 404.228L376.972 448.808L456.509 448.8C459.698 448.798 462.962 448.62 466.141 448.808C466.044 433.953 466.369 419.08 466.141 404.228L376.972 404.228Z"/>
</svg>
