<?xml version="1.0" encoding="utf-8" ?>
<svg xmlns="http://www.w3.org/2000/svg" xmlns:xlink="http://www.w3.org/1999/xlink" width="1024" height="1024">
	<path fill="#96C93D" transform="scale(2 2)" d="M167.474 54.4299C209.738 51.2754 219.712 86.2481 252.039 91.3407C260.365 92.6523 272.805 91.9912 281.642 91.9869L438.591 91.9852C458.123 91.9856 477.749 92.384 497.269 91.7997C508.466 91.4645 510.347 101.106 510.459 110.044C510.762 134.359 510.455 158.72 510.456 183.039L510.459 426.422C510.489 438.529 512.079 452.352 495.663 454.75C490.406 455.518 482.716 455 477.191 454.994L310.962 454.996L279.434 455.008C251.641 455.008 236.056 454.453 212.272 438.804C197.469 429.064 188.427 419.222 168.991 419.53C143.608 419.932 139.087 432.224 120.401 443.539C93.3063 459.945 55.2018 457.458 31.4039 436.308C3.30041 411.332 1.53973 397.672 1.56232 363.799L1.54897 116.564C1.50861 89.4876 3.71304 91.9793 26.8224 91.9887L59.4205 91.998C80.142 91.9955 97.315 92.0967 114.084 77.7801C132.374 62.1643 141.529 55.841 167.474 54.4299ZM165.172 82.8455C144.186 85.1085 140.372 94.8053 124.614 104.919C116.156 110.348 107.441 113.711 97.8643 116.652C98.5487 122.573 97.8584 132.547 97.8629 138.91L97.8329 417.986C97.8111 420.229 97.6003 422.584 97.8643 424.812C109.916 419.911 115.128 412.563 124.812 405.573C154.189 384.366 193.634 388.484 221.882 410.003C243.508 426.477 244.784 427.674 273.111 427.653L381.375 427.646L482.054 427.646L482.054 118.806L271.137 118.802C244.913 118.804 233.728 120.022 210.676 103.412C197.069 93.6075 184.623 79.7479 165.172 82.8455ZM30.9573 118.806C27.095 119.561 28.962 130.489 28.967 134.79L28.9719 365.695C28.9736 372.773 28.807 379.893 29.7876 386.924C32.4483 406.002 51.8215 420.948 68.8691 426.73L69.5363 426.64C70.9538 423.403 69.8723 399.9 69.8727 394.74L69.8725 118.806L43.8556 118.812C39.593 118.814 35.2036 119.055 30.9573 118.806Z"/>
	<path fill="#96C93D" transform="scale(2 2)" d="M398.819 169.726L419.815 169.712C423.884 169.701 428.45 169.084 432.419 170.035C447.379 173.623 445.827 193.912 432.18 196.61C429.185 197.203 425.863 196.836 422.824 196.817L346.086 196.806L327.231 196.818C322.269 196.824 316.38 197.433 311.562 196.119C298.218 192.479 298.62 172.503 312.518 170.135C316.32 169.488 320.245 169.715 324.087 169.716L398.819 169.726Z"/>
	<path fill="#96C93D" transform="scale(2 2)" d="M314.801 241.539C323.011 241.325 331.281 241.532 339.499 241.533L416.665 241.527C421.362 241.526 426.347 241.193 431.015 241.697C447.519 243.478 445.917 267.792 430.411 268.79C423.232 269.141 415.869 268.792 408.671 268.791L331.182 268.797C320.875 268.8 304.07 271.476 301.84 257.254C300.497 248.693 306.595 242.496 314.801 241.539Z"/>
	<path fill="#96C93D" transform="scale(2 2)" d="M313.646 314.8C320.484 314.498 327.475 314.791 334.324 314.793L410.197 314.794C417.172 314.792 430.249 313.308 436.457 316.846C448.778 323.867 443.595 339.209 431.311 342.211L328.058 342.211C318.118 342.211 304.27 343.993 302.063 330.747C300.691 322.507 305.479 316.1 313.646 314.8Z"/>
	<path fill="#96C93D" transform="scale(2 2)" d="M202.702 302.748C214.064 302.109 226.209 305.93 235.549 312.27C239.252 314.783 242.946 317.727 247.113 319.418C254.662 322.48 261.207 319.633 267.655 326.487C273.127 332.305 272.185 341.621 266.266 346.767C258.028 353.93 240.547 348.647 232.16 344.08C222.108 338.607 217.033 331.101 204.499 330.443C191.08 330.235 189.181 334.822 179.19 341.55C170.941 347.105 148.622 354.965 139.853 346.751C134.49 341.728 133.678 331.514 139.014 326.154C144.204 320.938 151.49 322.956 157.721 320.381C175.182 313.164 175.257 302.547 202.702 302.748Z"/>
	<path fill="#96C93D" transform="scale(2 2)" d="M199.961 230.245C228.21 227.555 230.485 241.505 247.711 247.988C255.069 250.757 262.388 248.219 268.078 255.304C273.053 261.499 272.198 270.703 265.798 275.589C257.188 282.164 238.11 275.742 230.195 270.78C221.384 265.257 217.514 259.384 206.336 257.944C193.395 257.121 189.601 262.918 179.827 269.282C170.666 275.246 149.677 283.581 139.787 274.975C134.078 270.007 133.196 260.789 138.471 255.15C143.81 249.441 151.034 251.987 157.508 249.195C173.278 242.395 175.427 231.005 199.961 230.245Z"/>
	<path fill="#96C93D" transform="scale(2 2)" d="M197.805 157.739C211.503 156.383 224.919 160.291 235.734 168.751C248.072 178.403 244.185 176.235 258.508 178.817C277.283 182.201 275.376 207.923 252.081 206.635C228.376 205.325 224.414 190.384 209.224 186.549C193.806 183.859 189.199 190.115 177.503 197.881C169.43 203.242 148.674 210.522 140.019 202.823C134.762 198.147 133.462 187.141 138.5 181.84C143.429 176.653 151.021 178.896 157.063 176.419C171.496 170.502 175.705 158.489 197.805 157.739Z"/>
</svg>
