<svg xmlns="http://www.w3.org/2000/svg" width="64" height="64" fill="none"><path fill="#B0B0B0" d="M52.767 8.005a2.773 2.773 0 0 1 1.694.46c.755.505 1.373 1.252 2.008 1.894l2.874 2.866c.607.598 1.213 1.202 1.835 1.785.6.56 1.238 1.101 1.764 1.733.348.418.653.891.753 1.434a1.814 1.814 0 0 1-.014.733 1.865 1.865 0 0 1-.3.67c-.405.58-1.005 1.082-1.51 1.575-.515.513-1.024 1.03-1.529 1.553l-3.26 3.337c-.715.742-1.405 1.552-2.192 2.218-.3.254-.611.432-1.006.498-.736.125-1.51-.025-2.118-.468a2.366 2.366 0 0 1-.923-2.454 2.289 2.289 0 0 1 .176-.487c.23-.47.601-.855.951-1.235.698-.756 1.44-1.466 2.172-2.187.403-.397.855-.79 1.193-1.243-3.715-.072-7.44-.02-11.156-.02-1.382.001-2.767.02-4.148-.014-.401.369-.76.837-1.098 1.263-.778.979-1.498 2.003-2.234 3.013a359.814 359.814 0 0 1-4.476 5.916 115.37 115.37 0 0 0-1.154 1.524c-.356.486-.698.992-1.101 1.44-.263.294-.56.566-.916.742a1.904 1.904 0 0 1-1.076.191c-.719-.086-1.444-.408-2.11-.681-1.215-.5-2.404-1.064-3.599-1.61-.736-.337-1.47-.692-2.239-.948-.818.111-4.803 6.716-5.79 7.796-.26.283-.562.528-.921.668-.59.232-1.24.199-1.817-.053-.57-.25-1.065-.722-1.288-1.309-.213-.557-.162-1.118.08-1.656.2-.444.553-.837.84-1.228l1.37-1.901 2.737-3.81c.604-.843 1.187-1.724 1.872-2.505.36-.409.773-.855 1.3-1.04.364-.127.765-.086 1.13.009.953.247 1.878.753 2.783 1.14 1.704.727 3.434 1.422 5.104 2.226 1.032-1.127 1.992-2.49 2.934-3.71l4.647-6c.462-.601.905-1.216 1.359-1.823.303-.406.603-.827.962-1.185.434-.433.935-.643 1.538-.736.69-.106 1.437-.05 2.134-.045l3.135.001 11.376-.02c-1.064-1.063-2.187-2.065-3.235-3.146-.446-.459-.924-.934-1.284-1.464a2.298 2.298 0 0 1-.368-.824c-.127-.615.04-1.235.387-1.75.404-.604 1.052-.988 1.754-1.133Z"/><path fill="#B0B0B0" d="M2.45 4.98c.075-.011.157-.01.233-.013.594-.016 1.186.264 1.61.67.417.4.638.873.707 1.444.06.503.038 1.021.038 1.527l-.002 2.15v7.255l-.001 18.494-.012 6.1c-.002 1.248-.019 2.5.014 3.748.056 2.138.695 3.982 2.28 5.477a6.084 6.084 0 0 0 3.296 1.592c.71.102 1.43.08 2.147.08l2.512-.003 8.89-.001h17.137l4.67.002c1.033.008 2.07.048 3.1.019 3.83-.11 6.658-1.395 7.22-5.537.19-1.395.119-2.836.118-4.24l-.003-7.451v-1.23c.001-.864.013-1.672.645-2.332a2.529 2.529 0 0 1 1.777-.76 2.367 2.367 0 0 1 1.71.674c.327.329.527.742.634 1.192.183.767.107 1.613.105 2.398l-.002 2.812.002 5.508c.004 1.135.057 2.288-.015 3.42-.139 2.185-.922 4.155-2.232 5.9-1.706 2.274-4.298 4.03-7.145 4.43-1.292.181-2.588.171-3.89.172h-3.739l-12.93.001-13.215.003-3.986-.002c-1.446-.005-2.906-.005-4.337-.23-1.812-.283-3.381-1.08-4.83-2.176-2.638-1.996-4.014-4.55-4.464-7.812-.328-2.372-.206-5.148-.205-7.567l.002-11.759-.002-14.307-.003-4.421C.28 9.42.23 8.627.279 7.843c.042-.69.147-1.47.581-2.034.405-.526.948-.743 1.59-.83Z"/></svg>