<svg xmlns="http://www.w3.org/2000/svg" width="64" height="64" fill="none"><g clip-path="url(#a)"><path fill="#B0B0B0" d="m8.569.22 29.03-.001c2.357.002 4.532.575 6.237 2.298 2.167 2.189 2.472 4.163 2.474 7.185l-.001 3.423c.823.037 1.665.001 2.49 0h4.882c1.104 0 2.254-.097 3.34.122 3.088.623 5.588 2.98 6.222 6.106.266 1.313.144 2.749.143 4.079v30.697c.004.762.03 1.512-.09 2.27-.632 3.98-3.907 6.417-7.783 6.601l-27.31.001c-1.26 0-2.689.101-3.918-.142-3.389-.673-5.916-3.583-6.31-6.984-.096-.832-.081-1.668-.081-2.504v-2.809l-6.121.002c-1.581 0-3.232.107-4.787-.217-3.464-.72-5.999-3.542-6.356-7.086-.093-.92-.063-1.863-.063-2.787V9.696C.56 7.255.689 5.333 2.353 3.302 4.096 1.173 5.92.482 8.57.22Zm32.209 22.795v-4.64c-1.854.07-4.09.058-5.945 0-1.27 1.006-3.131 3.068-4.284 4.26-.461.475-1 .894-1.426 1.4.068 1.647-.036 3.366 0 5.025h-5.652l-.001-3.515c0-2.792-.023-3.662 1.944-5.63l4.721-4.688c1.844-1.814 2.617-2.102 5.367-2.103 1.755 0 3.522-.045 5.276 0-.028-1.146.163-4.702-.117-5.601-.734-2.36-3.282-1.986-5.158-1.985H11.826l-1.662-.001c-1.826.001-4.127.672-4.12 2.887l.003 33.333c-.003 1.536.384 3.228 2.265 3.476.378.05.788.026 1.17.027l21.803-.003c2.23 0 4.463.031 6.692.001 2.816-.038 2.802-2.25 2.802-4.386l-.001-17.857Zm5.53-4.64.002 21.664c0 1.332.08 2.703-.2 4.012-.653 3.036-3.257 5.636-6.273 6.332-1.008.233-2.032.184-3.06.181l-2.575-.002c-3.575 0-7.157-.046-10.73 0v3.25c0 .487-.083.962.019 1.444.477 2.26 2.325 2.21 4.094 2.208l2.682-.002h22.48c3.379.002 5.158.306 5.159-4.049V21.677c-.003-2.063-.826-3.325-3.058-3.318l-3.667.016c-1.62 0-3.254.048-4.872 0Z"/></g><defs><clipPath id="a"><path fill="#fff" d="M0 0h64v64H0z"/></clipPath></defs></svg>