<svg xmlns="http://www.w3.org/2000/svg" width="24" height="24" fill="none"><path fill="#F0F0F0" d="M18.092 13.104a.72.72 0 0 1 .139-.117c-.003.136-.005.27 0 .405v.8h-1.208c.344-.371.708-.735 1.069-1.088ZM5.747 12.987c.153.072 1.071 1.02 1.242 1.204H5.747a40.41 40.41 0 0 1 0-1.204ZM5.748 17.368h1.296c-.203.218-.426.423-.641.63-.231.195-.446.429-.655.648-.013-.139 0-.284 0-.424v-.854ZM16.977 17.345h.787c.153-.001.307-.009.46 0v1.302a51.938 51.938 0 0 1-1.247-1.302ZM18.226 9.654c.042.062 0 .355 0 .447V11.2c.001.193.011.39 0 .583-.099.194-.354.383-.508.54l-1.426 1.449c-.138.141-.272.295-.427.42-.701.015-1.405-.02-2.107 0-.1.016.295-.336.318-.36l4.15-4.178ZM5.75 9.606c.24.281.499.539.76.8l3.659 3.65c.036.036.093.084.093.136-.195-.03-.419 0-.618 0H8.145c-.122-.079-.229-.208-.331-.312l-.476-.482c-.529-.528-1.07-1.041-1.588-1.58v-1.494c0-.237-.017-.482 0-.718Z"/><path fill="#F0F0F0" d="M11.996.04c.11.054.326.531.4.66l2.51 4.34c.434.75.462.552.462 1.459v1.619c.345.018.701 0 1.047 0v1.488c-1.175-.014-2.478-.044-3.65 0v5.406c.609.011 1.22 0 1.828 0h3.633v1.522h-5.46v5.672h3.92v-1.812c-.072-.107-.176-.197-.267-.288l-2.325-2.351c-.079-.08-.374-.296-.387-.402.073-.027 1.848-.009 2.09-.009.075.088.161.168.242.252l.599.608c.325.33 1.36 1.34 1.588 1.692-.008.423 0 .848 0 1.271v2.498H5.75l-.002-3.386c-.001-.174-.01-.35.001-.523.464-.46.947-.903 1.414-1.36.348-.341.68-.71 1.048-1.028h2.136c-.243.274-.52.528-.783.785L8.15 19.531c-.146.141-.787.728-.852.863v1.812h3.94v-5.672H5.749c-.026-.466-.008-1.051 0-1.522h4.872c.205 0 .412.008.618 0v-3.597c0-.603-.01-1.207 0-1.809h-2.57c-.359 0-.732.026-1.088 0-.008-.169 0-.341 0-.51v-.978h1.067c.019-.22.001-.455 0-.676V5.993c0-.384.267-.638.46-.979.605-1.073 1.24-2.13 1.86-3.195L11.574.76c.097-.173.3-.6.421-.721Zm-1.85 6.602c0 .492.007.984 0 1.476h3.706c.012-.179.001-.363 0-.541v-.935h-3.706Zm1.85-3.588c-.1.19-.215.37-.323.555l-.633 1.062c-.09.15-.185.295-.266.45h1.222c.415 0 .83.005 1.243 0-.187-.428-.673-1.12-.927-1.545-.081-.136-.2-.428-.316-.522Z"/></svg>