<?xml version="1.0" encoding="utf-8" ?>
<svg xmlns="http://www.w3.org/2000/svg" xmlns:xlink="http://www.w3.org/1999/xlink" width="1024" height="1024">
	<path fill="#96C93D" transform="scale(2 2)" d="M254.142 279.315C278.38 277.826 283.273 310.15 259.813 315.781C236.338 319.448 228.73 283.91 254.142 279.315Z"/>
	<path fill="#96C93D" transform="scale(2 2)" d="M259.813 94.9473C325.047 91.3518 364.365 169.327 308.737 210.111C299.198 217.104 288.939 222.896 281.42 232.313C273.724 241.951 276.126 252.436 270.767 259.489C264.747 267.412 252.362 268.876 244.553 262.767C228.704 250.367 243.948 220.503 254.142 207.401C258.301 204.065 262.373 199.446 266.96 195.729C277.996 186.788 298.756 177.2 297.52 160.247C295.078 126.771 239.983 120.228 226.345 152.06C224.274 156.895 223.348 161.961 219.76 166.028C208.636 178.638 183.984 170.705 189.133 147.05C196.171 114.713 228.378 95.9913 259.813 94.9473Z"/>
	<path fill="#96C93D" transform="scale(2 2)" d="M256.474 345.617L257.064 345.603C293.021 344.832 323.73 375.883 324.349 411.452C325.006 449.152 294.769 479.808 257.149 480.259C197.666 481.016 165.981 410.318 206.95 366.701C220.246 352.546 237.357 346.191 256.474 345.617ZM254.142 382.836C213.06 387.374 221.234 447.723 259.813 442.714C302.44 434.755 291.146 379.5 254.142 382.836Z"/>
	<path fill="#96C93D" transform="scale(2 2)" d="M256.474 26.314C315.084 25.0666 370.544 55.8229 402.985 104.406C408.24 112.277 412.654 120.891 416.953 129.312C423.749 132.14 430.893 134.131 437.655 137.079C488.888 159.414 518.848 214.463 507.941 269.726C494.001 340.364 418.336 384.149 351.364 357.978C347.529 356.479 343.782 354.336 339.717 353.555L339.28 353.473C337.337 354.11 335.625 355.192 333.815 356.119C318.405 364.013 302.894 352.125 305.451 335.595C307.077 325.078 317.417 322.066 325.612 317.869C360.691 299.901 387.857 259.157 393.545 220.747C409.567 112.551 295.35 25.4221 196.82 79.1546C192.212 81.6679 187.479 84.3562 183.27 87.4952C157.008 105.202 138.891 134.131 129.816 164.001C125.705 164.341 121.469 163.9 117.328 164.058C57.1293 166.355 19.0099 231.964 48.1505 284.915C67.9938 320.972 115.03 339.462 152.872 321.54C158.547 318.852 163.422 315.207 168.863 312.256L169.121 312.119C178.828 317.444 204.727 330.309 206.319 340.63C207.823 350.388 201.188 359.868 191.301 361.295C183.219 362.462 178.285 357.987 172.256 353.473C112.53 385.518 38.7154 354.136 11.7467 293.555C-18.792 224.955 23.4116 148.506 94.9336 130.539C98.0026 129.768 101.188 129.486 104.221 128.565L104.559 128.46C107.342 123.8 109.358 118.501 111.94 113.697C120.146 98.4326 131.876 83.5024 144.583 71.6206C178.458 39.9457 212.059 29.6766 256.474 26.314ZM430.005 174.177L430.014 174.476C430.208 179.335 431.168 184.172 431.539 189.025C435.141 236.044 418.122 281.385 386.379 316.104C384.419 318.248 377.281 324.583 376.59 326.313L376.703 326.778C385.213 330.103 406.863 327.505 415.33 325.159C458.464 312.101 483.807 265.8 470.552 222.478C465.363 205.519 446.951 181.303 430.005 174.177Z"/>
</svg>
