<?xml version="1.0" encoding="utf-8" ?>
<svg xmlns="http://www.w3.org/2000/svg" xmlns:xlink="http://www.w3.org/1999/xlink" width="1024" height="1024">
	<path fill="#96C93D" transform="scale(2 2)" d="M126.91 26.022L482.782 26.0119C494.109 25.9768 510.058 24.8589 510.213 41.7461C510.298 51.0088 487.493 70.0411 479.983 77.619L409.503 147.519C417.229 156.237 425.721 164.209 433.921 172.467L477.63 216.206C484.126 222.645 490.439 229.215 496.792 235.793C503.304 242.535 513.353 250.374 506.561 260.862C503.345 265.828 494.165 273.937 489.528 278.563L447.296 320.983C440.453 327.869 430.94 335.969 425.366 343.715C432.496 342.899 444.86 343.717 452.442 343.719L483.33 343.713C488.018 343.692 493.462 342.562 498.012 344.082C507.129 347.127 511.831 356.456 508.836 365.534C506.8 371.703 481.074 395.154 475.399 400.759L407.75 467.37C399.366 475.761 398.326 479.393 385.813 479.778L26.8257 479.778C19.8295 479.78 12.219 481.235 6.5526 476.022C-5.18004 465.228 5.45188 455.566 12.8577 448.013L89.8844 369.503C93.9687 365.316 98.1981 361.285 102.21 357.026C93.1743 349.342 84.0493 339.463 75.7569 330.966C56.3151 311.047 36.0988 291.891 16.6205 272.016C12.2767 267.584 4.91027 262.534 3.87422 255.983C2.20743 245.444 15.3756 235.605 22.7425 228.176L78.9871 171.482C82.0458 168.356 85.3716 165.319 87.9702 161.79C86.2552 161.67 84.4556 161.837 82.7243 161.823L19.1114 161.838C9.60751 161.796 2.17548 155.423 2.32406 145.517C2.43476 138.135 8.70741 133.878 13.3195 129.032C23.0715 118.784 33.2965 108.993 43.3472 99.0415L109.446 32.8893C115.299 27.1566 118.846 25.9452 126.91 26.022ZM128.862 56.7478L62.0128 124.015C59.1994 126.775 56.046 129.538 53.5286 132.555L366.777 132.562C371.758 132.562 376.784 132.707 381.744 132.181C384.77 130.175 387.265 126.738 389.941 124.241C403.37 111.711 416.082 98.4574 429.027 85.434C438.528 75.8755 449.134 67.0686 457.809 56.7478L128.862 56.7478ZM131.916 373.973L128.862 373.973L65.6855 437.031C61.5724 441.048 57.0058 444.987 53.5286 449.577L380.563 449.577C385.968 449.672 399.9 432.432 404.214 427.973L436.837 394.658C443.643 387.708 450.539 380.447 457.809 373.973L143.749 373.983C139.818 373.986 135.842 374.117 131.916 373.973ZM135.286 161.79L132.72 161.79C128.689 165.239 124.99 169.134 121.234 172.879L78.3152 215.805C71.0087 223.052 63.4756 230.226 56.4852 237.776C68.3213 238.038 80.2198 237.776 92.0617 237.775L377.125 237.776L456.427 237.776C449.147 231.24 442.43 224.042 435.516 217.124L416.482 198.435C405.59 187.527 392.398 172.785 380.971 162.876C378.245 160.511 356.897 161.785 352.239 161.785L135.286 161.79ZM58.493 268.244C56.9079 268.256 55.1072 268.738 56.9619 269.028L57.9874 269.898L57.8529 270.144L58.0906 269.985L58.1183 270.379C62.1318 274.226 65.9403 278.263 69.8858 282.177L121.924 334.376C125.013 337.553 128.132 341.376 131.916 343.715L361.019 343.72C384.434 343.713 378.17 346.75 394.702 330.218L408.598 316.337C411.67 313.304 414.891 310.385 417.783 307.178C430.233 294.304 444.654 281.479 456.427 268.244C452.883 268.046 449.302 268.224 445.751 268.236L67.9176 268.229C65.1256 268.212 61.12 267.728 58.493 268.244Z"/>
</svg>
