<svg width="45" height="45" viewBox="0 0 45 45" fill="none" xmlns="http://www.w3.org/2000/svg">
<g clip-path="url(#clip0_1212_622)">
<path d="M26.7491 23.6267C27.8064 23.5311 28.8027 24.2485 28.87 25.3448C28.931 26.337 28.3392 26.8617 27.7302 27.5465L41.3503 27.546C41.9054 27.5461 42.4933 27.5051 43.0437 27.5631C44.7218 27.7397 44.405 30.0788 44.2516 31.2178C43.2552 38.6138 37.0105 44.2464 29.5521 44.2747C29.0733 44.2765 28.5962 44.2122 28.1194 44.2734C28.1036 43.0141 28.0789 41.7052 28.1194 40.4471C28.543 40.4569 28.9591 40.5 29.3816 40.4471C29.7908 40.4953 30.1962 40.4642 30.6047 40.4242C35.407 39.9538 39.5507 36.134 40.333 31.3551L32.7151 31.3552C31.1074 31.3551 29.4977 31.3723 27.8903 31.3551C27.9805 31.4821 28.1011 31.5927 28.2078 31.7062C30.0807 33.6991 27.5826 36.042 25.831 34.7317C25.5041 34.4871 25.2239 34.1788 24.9358 33.8907L22.3408 31.2959C22.0295 30.9842 21.6797 30.6744 21.4267 30.3123C20.6961 29.2667 21.3956 28.3306 22.1137 27.6127L24.6363 25.1174C25.2676 24.4876 25.817 23.7571 26.7491 23.6267Z" fill="#B0B0B0"/>
<path d="M7.50616 0.190391L15.6337 0.189453C18.8438 0.189374 19.8213 0.934016 21.9089 3.02408L26.4969 7.64055C26.8701 8.01179 27.3792 8.6468 27.8255 8.87901L36.683 8.87822C37.4601 8.87831 38.2644 8.85185 39.027 9.02368C41.9926 9.692 44.1578 12.2581 44.3687 15.2933C44.4267 16.1281 44.3829 16.9846 44.3828 17.8219L44.383 22.1762C43.2346 22.2319 41.6245 22.2285 40.4742 22.1762L40.4754 16.2052C40.4747 14.5589 40.1365 13.1885 38.2338 12.727C37.6835 12.5934 36.4642 12.6595 35.8594 12.6603L28.2728 12.6615C25.6138 12.664 25.9777 12.4476 24.1037 10.6047C22.4284 8.95732 20.8035 7.25925 19.1341 5.60539L18.3598 4.82962C17.2817 3.74099 16.3892 4.06229 14.931 4.06378L8.55548 4.06376C6.15382 4.06363 4.58176 4.33154 4.43624 7.11496L4.43556 33.1312C4.43693 34.6391 4.60268 36.1881 6.48518 36.5145C7.02933 36.6088 7.64279 36.5632 8.1957 36.5631L22.3175 36.5625C22.2819 37.8534 22.317 39.1554 22.3175 40.4476C21.0753 40.4301 19.8307 40.4475 18.5883 40.4476L8.52141 40.4483C7.54848 40.4483 6.55261 40.4926 5.59778 40.2735C2.66092 39.5999 0.601117 36.9277 0.599057 33.9278L0.60072 8.99186C0.600857 7.9158 0.523862 6.58789 0.719975 5.53701C1.33313 2.25136 4.23164 0.179607 7.50616 0.190391Z" fill="#B0B0B0"/>
</g>
<defs>
<clipPath id="clip0_1212_622">
<rect width="45" height="45" fill="white"/>
</clipPath>
</defs>
</svg>
