<?xml version="1.0" encoding="utf-8" ?>
<svg xmlns="http://www.w3.org/2000/svg" xmlns:xlink="http://www.w3.org/1999/xlink" width="1024" height="1024">
	<path fill="#96C93D" transform="scale(2 2)" d="M250.898 1.62135C257.435 1.60214 264.015 1.47709 270.54 1.89189C310.112 4.40732 350.834 16.0894 384.87 36.4799C425.437 60.7831 459.708 97.3014 481.289 139.485C543.384 260.86 495.882 412.03 377.204 476.455C339.651 496.841 304.488 505.771 262.327 507.598C195.395 509.016 129.685 484.265 81.3512 437.859C-18.7314 341.77 -21.732 178.78 74.3976 78.8903C120.285 31.2084 184.562 2.86419 250.898 1.62135ZM249.894 170.696C230.818 170.683 211.111 172.003 192.217 174.436C187.519 175.041 182.551 175.302 177.959 176.405C171.742 225.661 169.986 276.381 176.675 325.622C177.033 328.263 177.658 330.892 177.959 333.531C206.944 338.252 234.642 339.278 263.875 339.248C288.998 339.306 311.11 334.659 334.966 333.531C337.905 307.45 340.399 286.055 340.444 259.891C340.49 232.086 339.026 203.928 334.966 176.405C310.505 171.114 274.802 170.674 249.894 170.696ZM183.178 364.774C190.349 396.565 200.466 429.736 221.203 455.413C248.817 489.604 280.672 479.473 299.968 443.892C313.664 419.161 322.669 392.311 328.686 364.774C318.723 364.863 308.619 366.71 298.679 367.515C269.572 369.871 238.005 369.929 208.893 367.469C200.337 366.746 191.758 364.864 183.178 364.774ZM146.381 182.577C112.392 188.88 60.1524 208.514 40.9601 236.351C22.8603 262.603 48.4366 285.44 70.0421 297.779C92.6202 310.289 121.804 321.604 147.211 326.997C146.517 319.245 145.208 311.555 144.639 303.791C142.463 274.11 142.105 242.708 144.323 213.008C144.547 210.018 148.089 183.877 146.864 182.516L146.381 182.577ZM253.73 30.343C219.698 33.8527 189.103 112.373 184.534 144.881C209.39 141.662 234.012 140.267 259.031 140.294C282.05 140.2 305.06 142.065 327.887 144.881C322.321 115.393 311.342 86.544 294.916 61.4046C286.395 48.3644 271.596 28.6513 253.73 30.343ZM364.613 182.577C371.784 216.872 371.068 269.64 368.218 304.813C367.616 312.247 366.254 319.582 365.537 326.997C390.52 322.299 415.229 313.26 437.53 301.042C439.593 299.911 441.665 298.622 443.864 297.779C464.137 283.207 490.874 264.217 471.142 236.955C454.072 213.37 395.343 185.021 364.613 182.577ZM42.1264 315.117C43.4175 322.988 47.5878 333.019 50.7548 340.49C76.4261 401.055 123.18 443.703 184.985 465.966C188.422 467.204 192.209 468.912 195.823 469.385C193.78 465.119 190.836 461.561 188.311 457.598C167.938 425.624 160.44 395.188 151.984 359.534L151.573 359.411C144.876 357.437 137.759 356.827 130.979 355.114C104.967 348.54 78.3257 338.406 55.4785 324.061C51.8725 321.797 45.5207 316.533 42.1264 315.117ZM192.671 41.9757C185.143 43.0221 177.72 46.468 170.712 49.3317C111.309 73.6045 66.0281 123.876 45.8079 184.373C45.1966 186.202 42.783 190.537 43.3459 192.304L43.8546 192.243C73.4682 173.429 117.393 153.988 151.984 150.706C152.674 146.378 153.988 142.184 154.935 137.909C162.123 105.464 172.338 78.0537 189.173 49.0358C189.709 48.1125 195.326 41.3331 192.671 41.9757ZM319.846 41.9757C322.959 48.0319 326.665 53.7543 329.762 59.8452C341.301 82.538 350.161 107.27 355.792 132.14C357.208 138.392 358.261 144.611 360.311 150.706C367.2 151.098 380.621 154.736 387.987 156.741C412.598 163.437 436.951 173.164 458.652 186.713C462.167 188.907 465.557 191.609 469.345 193.287C465.596 184.532 463.95 175.206 459.771 166.195C434.338 111.364 394.261 70.5593 337.288 47.7343C331.869 45.563 325.602 42.8191 319.846 41.9757ZM469.345 316.481C441.306 335.504 409.564 348.662 376.4 355.657C371.021 356.791 365.429 357.474 360.311 359.534L360.229 359.839C358.441 366.71 357.563 373.845 355.85 380.761C349.34 407.044 340.113 433.017 326.749 456.628C325.216 459.336 322.389 462.767 321.408 465.579L321.8 465.855C342.242 460.624 365.199 449.082 382.656 437.234C414.414 415.68 441.263 384.411 457.157 349.372C460.426 342.165 469.511 323.651 469.656 316.654L469.345 316.481Z"/>
</svg>
