<svg xmlns="http://www.w3.org/2000/svg" width="25" height="25" fill="none"><g clip-path="url(#a)"><path fill="#F0F0F0" d="M9.23 18.508c-2.332.005-4.408-.645-6.108-2.34-1.531-1.527-2.426-3.53-2.427-5.695 0-6.94 7.907-10.986 13.417-6.27.697.598 1.395 1.296 1.812 2.118.474-.101 1.18-.028 1.66.04 3.868.543 6.794 3.91 6.962 7.772.147 3.398-1.837 6.472-4.955 7.776-3.517 1.47-7.515.33-9.785-2.696-.152-.203-.326-.551-.469-.705H9.23Zm3.45-.99c-.476-.692-.632-.981-.93-1.732.276-.177.57-.312.838-.504 1.529-1.096 1.967-2.329 2.264-4.105.159-.949.163-1.753-.118-2.676-2.528.744-4.213 2.963-4.458 5.538.035 2.036.5 3.504 2.037 4.992 1.48 1.434 3.746 1.872 5.714 1.373 2.717-.689 4.613-3.275 4.555-6.066-.065-3.12-2.665-6.075-5.843-6.13.736 3.827-.537 7.395-4.059 9.31Zm-4.526-1.01h.378c-1.03-3.997.964-7.89 4.66-9.571.573-.261.708-.1.294-.612-1.196-1.474-3.07-2.265-4.954-2.202-1.712.127-3.211.825-4.352 2.145-3.05 3.53-1.378 9.011 3.131 10.086.28.067.562.098.843.155Z"/></g><defs><clipPath id="a"><path fill="#fff" d="M.625.49h24v24h-24z"/></clipPath></defs></svg>