<?xml version="1.0" encoding="utf-8" ?>
<svg xmlns="http://www.w3.org/2000/svg" xmlns:xlink="http://www.w3.org/1999/xlink" width="1024" height="1024">
	<path fill="#96C93D" transform="scale(2 2)" d="M434.418 37.8926C471.512 36.1242 507.765 64.9962 510.632 102.85C513.959 146.769 483.34 180.343 439.835 183.508C434.9 183.52 430.015 183.577 425.115 182.886C391.447 178.139 365.546 148.842 363.64 115.126C361.28 73.3676 393.21 39.9876 434.418 37.8926Z"/>
	<path fill="#96C93D" transform="scale(2 2)" d="M246.905 76.913C248.107 77.8231 249.198 79.0004 250.352 79.9862L465.884 262.372C473.737 268.941 482.997 276.192 490.322 283.054L490.321 407.307C490.321 427.901 490.643 448.551 490.322 469.14C487.295 469.352 484.234 469.174 481.2 469.16L246.125 469.14L1.7502 469.14C1.472 456.943 1.74559 444.67 1.74777 432.466L1.75048 308.694C1.74913 300.203 1.36273 291.526 1.7502 283.054C4.49731 280.386 7.95996 278.111 10.9354 275.638L239.774 82.8809C242.09 80.8924 244.311 78.5143 246.905 76.913ZM171.72 185.911C167.834 189.643 163.635 193.061 159.53 196.548L51.8019 288.082C47.1935 292.036 41.8712 295.78 37.863 300.333L37.863 433.762L178.377 433.76C184.102 433.759 189.901 433.547 195.618 433.762L195.612 376.002C195.611 366.268 195.382 356.473 195.618 346.746L209.125 346.746L232.481 346.746L232.481 433.762L331.09 433.768C335.119 433.769 339.18 433.928 343.203 433.762C340.091 428.806 336.581 424.065 333.227 419.27L221.244 256.673C215.659 248.494 175.335 187.389 171.72 185.911ZM232.481 211.436C236.614 216.283 240.056 221.6 243.652 226.848L377.272 421.13C380.179 425.293 382.658 430.115 386.176 433.762C401.129 434.115 416.142 433.743 431.106 433.749L445.755 433.797C448.567 433.822 451.479 434.062 454.276 433.762L454.283 315.049C454.29 310.579 454.658 305.974 454.276 301.528L293.999 236.201C278.329 229.804 262.777 223.138 247.015 216.967C242.171 215.071 237.628 212.433 232.481 211.436ZM245.15 123.779C233.229 135.004 211.495 149.43 202.074 161.108C208.112 162.966 213.981 165.586 219.827 167.969L312.237 205.408C321.673 209.259 331.206 212.88 340.559 216.93C350.748 221.095 361.111 224.932 371.09 229.576C368.567 226.689 365.604 224.212 362.723 221.692C348.284 209.062 333.12 197.173 318.438 184.814L267.169 141.689C262.853 138.071 249.384 125.638 245.15 123.779Z"/>
</svg>
