<svg xmlns="http://www.w3.org/2000/svg" width="120" height="120" fill="none"><path fill="#96C93D" d="M96.775 67.96c2.503-.229 4.817 1.635 4.793 4.25-.013 1.379-1.62 5.857-2.128 7.45l-4.98 15.774c-.367 1.164-.7 2.371-1.152 3.504-1.167 2.916-5.205 3.74-7.382 1.369-2.284-2.487-.202-7.633-.045-10.84-2.013 1.489-4.677 4.428-6.485 6.227l-14.245 14.029c-2.288 2.217-4.997 4.663-8.22 1.671-1.822-1.691-1.384-4.417-1.383-6.665l-.003-6.08c.001-1.057.045-2.121.004-3.177-.539-.647-1.274-1.182-1.874-1.78l-4.663-4.727c-1.585-1.598-3.217-3.163-4.78-4.779-1.408-1.456-2.751-3.03-4.296-4.344-1.79 1.73-3.59 3.466-5.346 5.23L9.877 109.835c-1.322 1.316-2.736 2.945-4.727 3.07-2.52.158-4.695-1.633-4.795-4.18-.103-2.613 2.13-4.164 3.81-5.826l31.098-31.16c3.127-3.164 5.345-3.576 8.69-.405 2.056 1.948 3.967 4.016 5.98 6.002l11.999 11.897c3.516 3.427 2.688 3.445 2.816 8.243.528-.518 1.006-1.086 1.53-1.61l7.011-6.945 3.113-2.989c.76-.727 1.571-1.437 2.194-2.29l-3.717.001c-1.64.002-3.476.196-4.88-.821-2.509-1.816-2.134-5.938.793-7.138.548-.224 1.135-.363 1.702-.53l13.966-4.158c2.86-.847 7.586-2.676 10.315-3.036Z"/><path fill="#96C93D" d="M78.972 7.005h32.399c5.435-.008 8.331-.382 8.332 6.55l-.001 31.621c.001.61.042 1.24-.027 1.846-.6 5.255-8.148 5.25-9.052.512-.168-.88-.109-1.818-.108-2.712l.005-15.652c0-1.94.084-3.916 0-5.852-1.288.955-2.557 2.475-3.728 3.62l-44.11 43.744c-1.748 1.723-3.006 3.605-5.79 3.107-1.974-.354-3.214-2.113-4.54-3.448L39.725 57.662c-3.16-3.163-5.414-4.122-4.072-8.87.604-2.137 1.505-4.273 1.935-6.438-1.85 1.809-3.846 3.509-5.773 5.237l-6.119 5.563c-.803.625-1.522 1.43-2.278 2.117l-5.047 4.526c-.807.728-1.636 1.621-2.558 2.193-4.71 2.917-9.218-3.416-5.823-6.75.816-.803 1.719-1.545 2.576-2.305l5.449-4.805L40.85 27.365c1.037-.938 2.62-2.622 3.772-3.272 2.85-1.607 7.077 1.125 6.678 4.393-.09.738-.364 1.471-.583 2.18L44.674 50.37c.895.847 1.744 1.751 2.622 2.616l9.984 9.979c.465-.368.898-.852 1.33-1.264 5.383-5.121 10.598-10.428 15.85-15.683l20.356-20.259c3.248-3.226 6.541-6.414 9.74-9.69-2.064-.07-4.154-.001-6.22 0l-17.012.003c-1.728 0-3.644.175-5.114-.93-3.3-2.483-1.895-7.552 2.762-8.137Z"/></svg>