<?xml version="1.0" encoding="utf-8" ?>
<svg xmlns="http://www.w3.org/2000/svg" xmlns:xlink="http://www.w3.org/1999/xlink" width="1016" height="1016">
	<path fill="#96C93D" transform="scale(1.98438 1.98438)" d="M197.826 410.277L75.4533 410.287C67.7285 410.289 59.9398 410.622 52.3017 409.254C25.8012 404.506 5.02153 382.225 1.95124 355.385C1.2412 349.178 1.56443 342.742 1.57437 336.497L1.58501 89.7528C1.58365 83.9515 1.28189 77.8797 2.05342 72.1254C5.99567 42.7231 29.3338 22.8723 58.0347 19.7535C88.0548 19.3651 118.136 19.7535 148.163 19.754L439.967 19.746C446.017 19.7467 452.226 19.5163 458.236 20.3099C486.021 23.9784 508.173 47.6037 510.504 75.5148C510.937 80.7058 510.5 86.1724 510.497 91.3951L510.501 338.425C510.529 344.515 510.871 350.389 509.964 356.463C506.268 381.22 487.07 401.925 462.913 408.122C450.691 411.257 437.966 409.82 425.488 409.826L339.125 409.826C335.229 409.8 331.332 409.529 327.443 409.835C329.555 414.221 340.954 424.689 345.4 429.537C348.601 432.946 371.486 455.199 371.798 457.113C367.495 464.555 352.384 475.881 345.686 483.665L345.4 484.001C345.319 483.951 345.236 483.903 345.155 483.852L344.754 483.593C341.662 481.622 339.129 478.573 336.58 475.965L298.566 438.112C294.702 441.736 291.117 445.68 287.39 449.447L266.478 470.335C258.584 478.165 249.047 491.019 236.225 481.836C232.1 478.882 228.612 474.611 224.95 471.074C203.407 450.265 202.426 437.713 197.826 410.277ZM60.4647 59.2645C42.9731 61.411 41.7273 73.1251 41.7337 86.8123L41.7556 102.243L453.625 102.243C459.418 102.258 465.215 102.315 471.007 102.243C471.059 97.2721 471 92.3008 471.013 87.3298C471.056 70.4206 469.434 59.4815 449.516 59.284L60.4647 59.2645ZM60.4647 142.33C54.2298 142.344 47.9899 142.405 41.7556 142.33L41.7427 344.991C41.7479 368.301 52.2616 368.068 70.1372 368.076L187.772 368.071C185.223 357.566 183.362 346.898 181.113 336.324C178.905 325.941 180.691 327.508 173.907 319.17L165.223 308.395C161.675 304.075 156.664 299.379 154.501 294.221C149.34 281.917 160.279 268.665 173.32 270.83C182.314 272.324 191.213 274.585 200.13 276.467L282.816 293.303C315.2 299.788 334.988 308.061 359.348 332.754C370.112 344.517 378.917 356.441 386.101 370.748L428.455 370.739C447.894 370.741 471.172 373.576 471.115 345.241L471.007 142.33L60.4647 142.33ZM219.316 321.391L231.265 379.063C234.128 392.661 236.947 406.292 239.527 419.946C241.002 427.754 240.868 429.544 246.616 435.308C248.749 432.479 251.464 430.073 253.991 427.597L282.319 400.081C285.918 396.539 289.404 392.837 293.125 389.425L301.738 380.989C316.702 366.302 319.816 371.363 338.803 370.748C337.081 367.414 334.163 364.594 331.548 361.927C310.719 340.681 295.97 336.715 268.726 331.455C252.95 328.409 234.906 323.315 219.316 321.391Z"/>
	<path fill="#96C93D" transform="scale(1.98438 1.98438)" d="M191.875 225.006L139.069 225.001C127.967 225.001 116.852 224.891 105.753 225.139C88.1397 225.532 77.9402 204.265 90.6546 191.568C97.1514 185.081 105.622 185.611 114.09 185.615L128.105 185.632L204.887 185.615C209.62 185.611 214.592 185.379 219.258 186.253C238.593 189.873 240.394 219.524 221.141 224.33C216.841 225.404 211.992 225.023 207.578 225.022L191.875 225.006Z"/>
</svg>
