<svg xmlns="http://www.w3.org/2000/svg" width="25" height="24" fill="none"><g fill="#F0F0F0" clip-path="url(#a)"><path d="M5.326 2.8c.2.005.395.159.564.25l4.2 2.204c.17.09.354.168.52.266.473.28-.09.677-.291.933l-2.22 2.8c-.208.258-.402.53-.614.785-.552.662-.663-.41-.754-.753-.178-.672-.482-1.973-.742-2.565l-.007-.015c-.136.13-.345.21-.505.312-3.125 1.99-3.687 6.244-1.086 8.937.81.84 1.67 1.313 2.813 1.614.254.068.511.08.765.137l.014.003c.964-.018 1.504-.006 2.48-.344.728-.252.627-.14.945.512l.418.845c.162.334.105.373-.226.504-2.34.928-4.983.738-7.138-.55C.668 16.404-.52 11.431 1.812 7.73c.814-1.292 2.221-2.534 3.66-3.099-.101-.458-.3-1.046-.36-1.488-.025-.191.03-.276.214-.342ZM16.24 4.037c5.252-.23 9.346 4.976 7.854 10.089-.637 2.18-2.402 4.312-4.572 5.053.065.322.395 1.415.262 1.594-.31.42-1.13-.22-1.496-.408l-3.465-1.736c-.288-.141-.858-.288-.62-.73.11-.203.526-.637.695-.826.28-.35.566-.703.857-1.045l1.494-1.768c.173-.21.443-.73.763-.535.146.09.169.372.203.524.216.95.521 1.879.756 2.824 4.085-1.703 4.334-7.395.797-9.878-1.426-1-3.439-1.374-5.09-.732-.268.105-.611.341-.817.022-.114-.178-.79-1.364-.797-1.458-.024-.325.355-.388.59-.472.904-.32 1.601-.489 2.587-.518Z"/></g><defs><clipPath id="a"><path fill="#fff" d="M.5 0h24v24H.5z"/></clipPath></defs></svg>