<?xml version="1.0" encoding="utf-8" ?>
<svg xmlns="http://www.w3.org/2000/svg" xmlns:xlink="http://www.w3.org/1999/xlink" width="1024" height="1024">
	<path fill="#96C93D" transform="scale(2 2)" d="M256.01 108.746C255.976 91.8531 253.978 79.304 264.928 64.7302C272.84 54.2002 284.024 48.603 296.903 46.75C320.733 45.8811 327.907 53.6924 342.821 68.8393L474.29 201.033C481.921 208.697 493.381 218.76 499.736 227.286C512.595 244.536 510.896 267.767 496.746 283.74C493.932 286.917 490.79 289.859 487.786 292.856L346.682 435.565C333.938 448.735 324.205 460.413 304.163 461.496C285.839 462.486 267.901 452.053 260.479 435.2C254.157 420.847 256.724 412.433 256.01 397.89L102.761 397.891C93.8149 397.901 85.6982 399.638 78.3472 393.227C70.6054 386.475 70.1351 373.434 76.9104 365.854C84.8582 356.963 97.7581 358.557 108.551 358.558L242.336 358.568C246.889 358.573 251.463 358.799 256.01 358.565C256.303 353.785 256.021 348.856 256.018 344.056L256.01 314.28L195.306 314.272C182.664 314.272 170.01 314.156 157.37 314.396C130.897 314.899 126.215 274.534 160.203 274.377L266.191 274.503C296.469 274.495 295.883 280.173 295.857 305.618L295.867 341.375L295.88 396.387C295.877 402.695 293.303 419.21 299.086 422.285C303.044 424.389 308.581 416.619 310.933 414.244L441.636 284.639C446.626 279.771 466.338 261.249 468.517 256.696C471.809 249.818 461.371 243.893 456.818 239.209C435.138 216.901 413.001 195.066 391.09 172.987L314.291 95.6553C310.745 92.041 307.952 88.2203 303.108 86.3364C291.689 89.4817 295.864 102.639 295.864 113.426L295.884 206.226C295.95 214.227 296.972 221.341 291.077 227.731C284.125 235.268 262.249 232.452 252.298 232.449L169.644 232.448C164.108 232.449 158.172 232.87 152.706 232.022C132.04 228.816 130.693 197.345 151.095 193.372C156.015 192.414 161.17 192.743 166.164 192.741L256.01 192.748L256.01 148.414L106.038 148.417C96.6592 148.418 87.0752 150.392 79.7126 143.321C71.6577 135.585 70.6143 122.663 78.6969 114.553C86.2 107.025 94.515 108.731 104.141 108.743L256.01 108.746Z"/>
	<path fill="#96C93D" transform="scale(2 2)" d="M73.9867 232.441C62.3976 232.32 50.7959 232.439 39.2057 232.448C28.465 232.457 17.1999 234.39 8.61144 226.562C-4.46378 214.644 4.0234 193.24 21.1565 192.748C29.3121 192.056 39.6789 192.752 48.0963 192.753L64.3058 192.732C70.3886 192.691 77.7947 191.832 83.2329 195.174C99.8433 205.381 93.614 228.199 73.9867 232.441Z"/>
	<path fill="#96C93D" transform="scale(2 2)" d="M69.2945 314.28L35.5647 314.297C30.309 314.297 22.9331 314.879 17.8944 313.84C2.72729 310.713 -1.83284 291.795 7.90955 280.814C12.8796 275.212 19.4296 274.88 26.4234 274.517L57.7822 274.511C63.6155 274.512 73.3441 273.816 78.8499 275.338C97.3386 280.451 100.65 314.318 69.2945 314.28Z"/>
</svg>
