<?xml version="1.0" encoding="utf-8" ?>
<svg xmlns="http://www.w3.org/2000/svg" xmlns:xlink="http://www.w3.org/1999/xlink" width="1016" height="1016">
	<path fill="#96C93D" transform="matrix(0.992188 0 0 0.992188 0 0.000488281)" d="M263.746 222.194C281.372 221.568 311.986 229.982 329.96 233.478C355.336 238.412 380.728 242.938 406.056 248.154C426.388 252.34 447.222 250.548 460.514 268.868C473.966 287.408 469.65 312.968 450.992 326.1C431.922 339.524 407.972 330.2 387.246 326.598C391.03 332.33 397.044 337.382 401.916 342.244L874.958 817.03C886.554 828.524 899.556 839.742 910.006 852.242C938.33 824.588 944.89 792.976 918.494 759.698C908.73 747.388 896.174 737.312 885.222 726.08L810.576 650.484C788.714 628.662 744.036 597.63 775.496 563.698C791.504 546.434 817.354 549.926 833.276 565.088C854.608 585.404 874.872 607.072 895.716 627.926L943.656 675.946C962.708 695.204 979.652 710.69 993.348 734.478C1021.98 784.218 1019.15 848.75 981.036 892.704C963.598 912.812 940.262 932.648 921.344 952.294C902.886 971.134 882.62 990.808 858.098 1001.46C817.962 1018.88 774.412 1015.83 736.364 993.992C719.536 984.334 706.498 969.398 692.958 955.772L593.812 857.61C573.214 836.914 539.292 813.602 558.902 780.502C568.416 764.444 592.908 757.38 609.544 766.104C619.258 771.198 626.886 781.002 634.642 788.594L740.852 894.65C748.412 902.294 762.598 919.268 770.952 924.278C795.646 939.094 838.678 933.918 854.008 908.086L854.368 907.47L366.214 419.594C355.964 409.324 346.286 397.634 335.484 388.046C338.352 408.71 347.838 428.468 333.52 447.584C315.36 471.83 273.782 467.732 263.02 438.334C258.46 425.876 256.698 411.544 254.206 398.502L233.912 292.1C228.052 262.216 221.95 226.492 263.746 222.194Z"/>
	<path fill="#96C93D" transform="matrix(0.992188 0 0 0.992188 0 0.000488281)" d="M38.5954 3.08628L39.5986 3.05716C54.0074 2.75618 68.5012 3.08076 82.9192 3.08118L634.136 3.05088C642.46 3.02998 651.128 2.51944 659.402 3.31792C697.284 6.97352 688.516 61.508 688.502 87.8464L688.51 520.012C683.136 515.79 678.306 509.97 673.448 505.114L636.836 468.068C629.614 460.802 615.452 449.036 610.022 441.464C610.398 436.192 610.084 430.738 610.066 425.446L610.012 154.552C610.016 130.234 610.69 105.759 610.022 81.4662L385.6 81.4662C387.424 89.5482 389.022 97.8416 387.998 106.15C383.422 143.347 334.642 154.87 312.984 125.653C302.748 111.844 304.768 97.4042 307.118 81.4662L86.943 81.4662C86.5226 95.7702 86.9236 110.209 86.9262 124.524L86.943 210.75L86.943 380C105.987 379.934 125.309 377.102 140.088 391.648C156.489 407.788 156.202 433.594 139.776 449.74C125.611 463.664 105.132 460.952 86.943 460.898L86.943 631.028L307.118 631.028C307.006 612.55 304.738 595.024 318.824 580.642C334.886 564.24 361.204 563.926 377.456 580.136C392.308 594.95 390.048 611.784 389.998 631.028C412.404 631.014 435.066 631.81 457.438 631.028C473.228 645.152 487.752 661.398 502.668 676.494C511.846 685.782 527.2 699.268 534.224 709.422C521.204 708.55 507.608 709.412 494.528 709.416L79.5372 709.438C55.1234 709.458 13.2086 716.432 8.6224 682.226C7.09388 670.826 7.54258 659.078 7.55242 647.596L7.5532 90.0506C7.54588 61.1594 -0.71285 8.39204 38.5954 3.08628Z"/>
</svg>
