<svg xmlns="http://www.w3.org/2000/svg" width="33" height="33" fill="none"><g clip-path="url(#a)"><path fill="#F0F0F0" d="M1.519 4.531c.165-.02.35-.002.518-.001H4.97c.307 0 .646-.028.948.016 1.211.176 1.13 1.819.058 2.014-.157.029-1.65.022-1.807-.002.394.485 1.167 1.115 1.642 1.538l6.794 6.106c.311.277 1.054 1.031 1.397 1.204.476.028.967 0 1.446 0h3.27c-.57-.614-1.333-1.248-1.947-1.849L10.005 6.98c-.244-.238-.52-.465-.733-.73-.582-.72-.063-1.693.817-1.727.383-.014.8.008 1.187.008h19.291c1.508 0 1.855-.038 1.84 1.602v9.985c0 .404.025.772-.277 1.088-.37.387-1.053.401-1.433.022-.4-.401-.296-1.027-.295-1.542V7.968c-.157.107-.295.24-.438.365l-.856.746c-.943.818-1.882 1.644-2.81 2.48l-4.653 4.189c-.211.19-.428.377-.613.594 1.32 1.253 2.737 2.429 4.067 3.684.564.495 1.101 1.02 1.659 1.523l2.3 2.098c.454.412.919.81 1.366 1.23-.024-.893 0-1.793 0-2.687v-.977c0-.28-.011-.574.04-.85.192-1.015 1.91-.938 1.95.249.014.422-.007.854-.007 1.277v4.546c0 1.046-.114 1.72-1.348 1.752-1.111.03-2.223-.013-3.334.004-.215.003-.443.022-.655-.015-1.054-.182-1.171-1.755-.133-2.028.32-.084 1.468-.038 1.863-.039-.17-.22-.433-.409-.64-.6-.645-.597-1.306-1.178-1.956-1.77L20.06 18.2c-.297-.27-.585-.572-.909-.81-1.358-.032-2.949-.052-4.305 0 .21.2.403.419.605.627l5.54 5.772c.297.314.61.614.916.92l1.054 1.071c.363.368.869.702.937 1.256.153 1.235-1.176 1.153-1.95 1.153H3.284c-.534 0-1.076.019-1.61-.015-1.261-.08-1.061-1.328-1.06-2.22L.612 6.77c0-.791-.229-2.14.906-2.239ZM2.584 7.9v16.927c.258-.207.5-.435.747-.656l3.526-3.192c.214-.198.448-.383.655-.588l4.472-4.048c-.247-.213-.48-.441-.72-.659L4.323 9.43c-.371-.329-1.347-1.332-1.74-1.531Zm10.348 10.33c-.437.36-.838.763-1.26 1.14L5.51 24.895c-.448.404-1.004.845-1.418 1.262.271-.021.547-.001.82 0h15.617c-1.129-1.22-2.313-2.429-3.461-3.64l-1.423-1.48c-.196-.204-2.625-2.792-2.712-2.808Zm-.424-11.671c.815.769 1.602 1.57 2.402 2.354l4.524 4.393c.291.284.571.584.877.852.252-.138.81-.7 1.058-.92 1.194-1.047 2.366-2.125 3.575-3.154.826-.758 1.678-1.487 2.517-2.23l.943-.831c.18-.158.359-.332.56-.464h-14.63c-.608 0-1.219.013-1.826 0Z"/></g><defs><clipPath id="a"><path fill="#fff" d="M.5.5h32v32H.5z"/></clipPath></defs></svg>