<svg xmlns="http://www.w3.org/2000/svg" width="33" height="32" fill="none"><path fill="#F0F0F0" d="M11.916 14.148c.3-.034.623-.01.925-.01l1.722.002h5.988c2.255-.007 4.293.843 5.892 2.44 1.241 1.238 2.113 2.855 2.345 4.601.09.684.086 1.379.087 2.067-.78-.018-1.562-.006-2.343-.013-.017-.448-.016-.896-.056-1.343-.13-1.463-.636-2.623-1.668-3.671a5.908 5.908 0 0 0-.805-.674 6.23 6.23 0 0 0-1.147-.632 6.156 6.156 0 0 0-1.516-.413 6.019 6.019 0 0 0-.26-.03c-.537-.055-1.087-.041-1.625-.045l-3.907.013h-1.881c-.955 0-1.92-.02-2.848.243-.952.27-1.81.808-2.51 1.501a5.66 5.66 0 0 0-.573.65 6.07 6.07 0 0 0-.471.728 5.8 5.8 0 0 0-.597 1.622 5.818 5.818 0 0 0-.123 1.148v3.848l-.001 1.143c0 .287-.016.585.033.869.045.258.151.493.339.68.225.224.504.325.812.381.599.11 1.224.037 1.83.035l3.074.001 8.722.008h2.514c.46.002.947.037 1.402-.02.285-.036.565-.152.772-.354.617-.601.477-1.647.488-2.433.267-.005.535.004.801.004.512 0 1.024-.002 1.536-.008.022.31.02.629.014.94-.019 1.073-.207 1.972-.929 2.812-.818.95-1.6 1.248-2.822 1.343-.422.032-.855.017-1.278.018l-2.133.002-6.947.007-4.932-.006-1.42-.003c-.37-.001-.746.01-1.114-.042a3.645 3.645 0 0 1-1.857-.837c-.824-.712-1.237-1.684-1.313-2.758-.025-.348-.017-.703-.019-1.053l.007-2.259c.003-2.055-.137-3.794.769-5.717a8.73 8.73 0 0 1 1.328-2.009c1.14-1.308 2.754-2.286 4.458-2.633.409-.084.82-.115 1.237-.143ZM15.885.116c.204-.025.427-.01.632-.008 1.386.017 2.8.412 3.91 1.261 1.455 1.115 2.528 2.831 2.767 4.662a6.57 6.57 0 0 1-1.327 4.936c-1.254 1.623-2.764 2.396-4.782 2.652a2.742 2.742 0 0 1-.226.017 7.258 7.258 0 0 1-.648.005 6.228 6.228 0 0 1-.646-.059 7.216 7.216 0 0 1-.637-.122 6.57 6.57 0 0 1-2.469-1.182 6.849 6.849 0 0 1-.252-.204c-1.4-1.18-2.3-2.816-2.453-4.645a6.779 6.779 0 0 1 .05-1.5 6.918 6.918 0 0 1 1.442-3.333 6.7 6.7 0 0 1 .792-.83A6.567 6.567 0 0 1 13.098 1a6.875 6.875 0 0 1 1.035-.49 6.799 6.799 0 0 1 1.589-.379c.054-.006.108-.012.163-.016Zm.787 11.21c1.356-.137 2.47-.651 3.343-1.719a4.183 4.183 0 0 0 .465-.695 4.248 4.248 0 0 0 .424-1.178 4.234 4.234 0 0 0 .067-1.25 4.547 4.547 0 0 0-.24-1.083 4.405 4.405 0 0 0-.498-.99 4.48 4.48 0 0 0-.895-.983c-.802-.652-1.93-1.077-2.973-.984-.306.02-.614.03-.916.092-.864.175-1.657.711-2.235 1.366-.805.912-1.245 2.098-1.163 3.317.078 1.171.649 2.24 1.53 3.006a4.592 4.592 0 0 0 .68.49 4.506 4.506 0 0 0 1.992.605 4.59 4.59 0 0 0 .42.006Z"/></svg>