<?xml version="1.0" encoding="utf-8" ?>
<svg xmlns="http://www.w3.org/2000/svg" xmlns:xlink="http://www.w3.org/1999/xlink" width="1024" height="1024">
	<path fill="#96C93D" transform="scale(2 2)" d="M148.531 158.312C161.367 157.158 166.424 167.809 166.465 178.993L166.469 290.005C166.466 317.734 162.626 319.293 137.94 319.276L26.6875 319.263C18.0469 319.291 10.4452 313.647 8.88886 304.932C7.03598 294.556 13.9435 289.085 20.4959 282.452L129.577 171.915C135.941 165.531 139.028 159.865 148.531 158.312ZM129.036 225.993C118.685 233.224 97.04 257.794 87.6642 267.474C84.3155 270.932 77.6567 276.836 75.1657 280.466L75.2331 280.823L75.5843 280.812L129.036 280.812C129.268 276.821 129.139 226.196 129.036 225.993Z"/>
	<path fill="#96C93D" transform="scale(2 2)" d="M254.255 2.24053C261.694 1.53032 275.18 3.54731 282.859 4.64563C340.634 12.9085 394.578 39.336 435.034 81.4052C499.963 148.922 521.973 252.794 489.284 340.766C466.961 400.844 421.304 452.307 363.106 479.708C335.724 492.6 307.442 500.109 277.31 503.262C215.159 508.686 149.879 491.014 101.879 450.36C92.7303 442.611 92.5063 427.402 103.234 420.833C108.376 417.685 117.026 416.771 122.993 415.318C169.691 403.949 216.613 376.332 247.808 340.042C323.051 252.511 326.979 129.783 252.204 40.7207C248.544 36.3608 243.981 32.2635 241.053 27.3664C234.463 16.3422 241.659 3.02894 254.255 2.24053ZM303.868 47.9371C306.478 53.2216 309.926 58.0841 312.693 63.2884C387.582 204.119 319.174 378.026 174.56 436.962C169.466 439.038 164.177 440.755 159.262 443.243C195.448 461.283 240.545 470.898 281.071 464.858C404.389 449.787 488.308 333.369 462.672 211.369C446.626 135.012 392.019 73.748 317.528 51.3579C313.345 50.1008 308.256 48.0228 303.868 47.9371Z"/>
</svg>
