<?xml version="1.0" encoding="utf-8" ?>
<svg xmlns="http://www.w3.org/2000/svg" xmlns:xlink="http://www.w3.org/1999/xlink" width="1024" height="1024">
	<path fill="#96C93D" transform="scale(2 2)" d="M371.769 164.592C381.128 164.169 387.761 169.686 394.504 175.46C437.164 211.991 446.675 276.644 408.736 320.598C401.328 329.181 385.786 343.584 373.738 344.487C364.085 344.457 355.806 337.738 354.796 327.929C353.343 313.808 362.439 311.705 371.164 305.749C406.004 281.966 404.117 229.356 371.829 203.465C368.431 200.74 364.431 198.916 361.071 196.204C348.638 186.171 354.021 166.273 371.769 164.592Z"/>
	<path fill="#96C93D" transform="scale(2 2)" d="M409.193 96.5879C424.554 95.3224 453.339 123.912 463.892 135.88C536.213 217.901 520.29 338.266 432.931 402.102C426.961 406.465 420.307 411.904 412.665 412.519C396.601 412.611 386.539 396.122 396.531 383.885C399.662 380.051 404.084 378.09 408.198 375.559C421.998 367.067 433.88 355.38 443.779 342.644C494.993 276.753 477.476 180.932 408.672 134.665C401.681 129.964 393.953 126.578 392.86 117.101C391.652 106.617 398.809 97.803 409.193 96.5879Z"/>
	<path fill="#96C93D" transform="scale(2 2)" d="M313.167 33.8176C334.534 31.8283 333.997 50.4747 333.977 64.6723L333.96 420.197C333.961 429.24 335.769 455.004 331.629 462.365C326.535 471.422 315.446 475.496 305.814 471.31C297.998 467.914 285.424 459.334 277.464 454.431L130.664 366.411C125.006 363.258 118.816 364.273 112.561 364.287L79.822 364.291C71.2922 364.286 62.3458 364.802 53.9412 363.144C28.1814 358.062 7.26736 336.144 2.73811 310.376C1.35319 302.496 1.75782 294.328 1.76048 286.356L1.75829 223.082C1.76248 196.013 3.16009 175.668 27.4216 157.405C44.7861 144.334 59.6441 145.285 79.9474 145.291L112.841 145.289C134.507 145.385 132.362 142.853 150.784 131.552L293.071 44.4095C299.017 40.6799 306.373 34.9351 313.167 33.8176ZM295.132 85.4792C289.213 88.5085 283.709 92.4034 278.03 95.8624L177.801 157.67C170.885 161.87 164.026 166.17 157.009 170.201L157.009 340.555C173.74 349.453 192.832 361.322 208.994 371.46C228.361 383.415 248.051 394.862 267.583 406.546C274.205 410.508 288.254 420.085 295.132 422.52L295.129 144.418C295.129 138.191 295.365 85.973 295.132 85.4792ZM64.422 182.779C41.2065 184.796 38.9733 200.385 38.9711 219.763L38.9748 281.122C38.9622 298.952 36.6612 321.651 59.5926 327.433C64.7969 328.746 70.5233 328.267 75.8589 328.263L94.375 328.245C102.763 328.248 111.16 328.34 119.547 328.245L119.547 182.779L64.422 182.779Z"/>
</svg>
