<svg xmlns="http://www.w3.org/2000/svg" width="25" height="25" fill="none"><g fill="#F0F0F0" clip-path="url(#a)"><path d="M7.583 8.026c.602-.055.84.445.841.969v5.204c0 1.3-.18 1.373-1.337 1.372H1.872c-.405 0-.761-.264-.834-.673-.087-.486.237-.742.544-1.053l5.113-5.182c.298-.3.443-.565.888-.637Zm-.913 3.172c-.486.339-1.5 1.49-1.94 1.944-.157.163-.469.44-.586.61l.004.016H6.67c.01-.187.004-2.56 0-2.57Z"/><path d="M12.546.71c.35-.034.981.06 1.341.112 2.709.387 5.237 1.626 7.133 3.598 3.044 3.165 4.076 8.034 2.544 12.157-1.047 2.817-3.187 5.229-5.915 6.513-1.284.605-2.61.957-4.022 1.105-2.913.254-5.973-.575-8.223-2.48-.429-.363-.44-1.076.063-1.384.241-.148.647-.19.927-.259 2.189-.533 4.388-1.827 5.85-3.528 3.527-4.104 3.711-9.856.206-14.031-.171-.205-.385-.397-.522-.626a.77.77 0 0 1 .618-1.178Zm2.326 2.141c.122.248.284.476.414.72 3.51 6.601.304 14.753-6.475 17.516-.239.097-.487.178-.717.294 1.696.846 3.81 1.296 5.71 1.013 5.78-.706 9.714-6.163 8.512-11.882-.752-3.58-3.312-6.451-6.804-7.5-.196-.06-.434-.157-.64-.16Z"/></g><defs><clipPath id="a"><path fill="#fff" d="M.625.604h24v24h-24z"/></clipPath></defs></svg>