<svg xmlns="http://www.w3.org/2000/svg" width="45" height="45" fill="none"><path fill="#96C93D" d="M9.08 5.384H34.91c.756 0 1.498-.002 2.241.157 4.661.998 7.71 4.932 7.717 9.635V24.7c0 .584.022 1.176-.028 1.758-.342 4.015-3.241 7.663-7.305 8.32-.81.132-1.659.097-2.477.097h-3.185l-17.003-.002c-.525 0-1.093.07-1.61.002-1.89 1.808-3.087 3.81-5.988 4.103C3.885 39.32.62 36.843.297 33.4c-.06-.633-.055-1.265-.054-1.9V17.063c0-1.28-.089-2.717.147-3.967.814-4.318 4.338-7.299 8.69-7.712Zm22.684 25.05h2.537c.854 0 1.752.07 2.583-.148 1.422-.373 2.785-1.627 3.145-3.073.203-.817.163-1.675.163-2.51v-9.491c-.006-3.63-2.102-5.251-5.608-5.252h-23.34c-.655 0-1.317-.036-1.97 0-1.318.113-2.554.634-3.42 1.663-.967 1.147-1.086 2.211-1.085 3.622v16.407c0 .384-.025.786.008 1.169.083.99.97 1.714 1.956 1.609.585-.063.966-.57 1.354-.958l1.422-1.418c1.945-1.962 2.18-1.62 4.874-1.62h17.381Z"/><path fill="#96C93D" d="M21.665 17.622c1.405-.002 2.756-.15 3.902.84 1.155 1 1.295 2.85.274 3.996-.636.715-1.616 1.077-2.556 1.132-1.959.034-4.5-.145-4.786-2.643-.23-2.02 1.321-3.133 3.166-3.325ZM12.068 17.623c1.185-.007 2.388.037 3.309.889 1.868 1.726.825 4.617-1.67 5.017-.318.051-.643.052-.965.061-1.237.001-2.319-.026-3.295-.914-1.152-1.048-1.304-2.807-.224-3.967.793-.853 1.73-1.043 2.845-1.086ZM32.34 17.623c1.207-.066 2.414.05 3.33.937 2.07 2.01.247 5.001-2.662 5.03-1.281.004-2.38.01-3.376-.939-1.095-1.043-1.163-2.936-.089-4.024.755-.765 1.755-1 2.796-1.004Z"/></svg>