<?xml version="1.0" encoding="utf-8" ?>
<svg xmlns="http://www.w3.org/2000/svg" xmlns:xlink="http://www.w3.org/1999/xlink" width="1024" height="1024">
	<path fill="#96C93D" transform="scale(2 2)" d="M91.2656 1.49611C116.38 1.10073 118.797 4.19223 138.077 16.0717L430.95 198.338C437.114 202.172 443.713 205.64 449.616 209.842C477.823 229.923 480.342 272.082 455.674 295.979C448.923 302.518 440.027 307.135 432.09 312.121L305.118 391.85C295.649 397.223 286.48 403.024 277.254 408.796L252.828 424.218L142.497 491.436C137.196 494.628 132.167 498.292 126.589 501.005C88.8025 519.381 44.9464 496.061 40.0021 454.876C39.0937 447.309 39.561 439.32 39.5684 431.692L39.5604 77.8815C39.5593 69.2563 39.1104 60.384 40.07 51.8089C43.007 25.5635 65.1768 4.41904 91.2656 1.49611ZM96.5508 29.6017C81.8166 30.7549 69.3503 41.8154 68.1172 56.7564C67.5325 63.8399 67.9559 71.1861 67.9614 78.3019L67.9605 423.492C67.9532 440.379 64.8954 461.094 79.0214 473.114C99.6233 490.645 121.899 471.253 139.839 460.088L284.833 370.837C289.065 368.194 293.392 365.708 297.603 363.032L420.261 285.931C424.936 282.944 430.27 280.34 434.44 276.681C444.873 267.526 446.531 251.441 439.108 239.879C434.327 232.432 426.745 228.588 419.445 224.07L153.545 58.1017C140.349 49.8971 110.956 28.4172 96.5508 29.6017Z"/>
	<path fill="#96C93D" transform="scale(2 2)" d="M138.117 129.345C149.398 134.498 163.358 144.348 173.974 151.017L328.366 246.482C332.597 249.14 337.396 251.722 341.157 255.007C336.681 257.26 332.419 260.086 328.146 262.702L263.767 302.708C254.967 308.309 245.993 313.618 237.132 319.122L149.287 373.392C145.596 375.609 141.959 377.939 138.117 379.889L138.117 129.345ZM167.489 180.632C167.25 186.05 167.483 191.548 167.486 196.978L167.489 328.704C175.698 324.767 183.216 319.222 190.996 314.495L213.879 300.332C223.291 294.583 232.84 288.935 242.11 282.965L272.922 263.835C277.567 260.926 282.302 257.052 287.369 255.007C283.097 250.855 274.803 246.563 269.489 243.278L183.775 190.68C179.486 188.037 171.699 182.236 167.489 180.632Z"/>
</svg>
