<?xml version="1.0" encoding="utf-8" ?>
<svg xmlns="http://www.w3.org/2000/svg" xmlns:xlink="http://www.w3.org/1999/xlink" width="1024" height="1024">
	<path fill="#96C93D" transform="scale(2 2)" d="M80.1727 180.346C93.5145 180.939 98.5581 191.012 105.411 200.57L295.803 461.191C301.543 468.911 308.739 475.544 307.275 486.006C305.754 496.87 295.13 505.741 284.012 503.97C271.998 502.056 267.404 492.314 260.751 483.472C248.898 467.719 237.435 451.708 225.969 435.674C224.378 433.242 222.483 430.917 220.757 428.568L168.016 357.203C157.754 343.43 147.883 329.363 137.884 315.4L100.612 263.973L100.616 362.439C100.614 367.117 100.898 372.051 100.126 376.671C96.7128 397.099 61.1491 398.669 59.3552 373.153C59.093 369.423 59.2613 365.592 59.2613 361.851L59.3966 210.191C59.3658 193.95 60.6659 181.797 80.1727 180.346Z"/>
	<path fill="#96C93D" transform="scale(2 2)" d="M223.621 1.79371C235.793 0.215703 242.166 9.58709 248.63 18.4065L412.054 242.094L412.046 129.708C412.048 124.593 411.691 119.009 412.53 113.959C416.057 92.7166 448.147 92.1827 452.347 113.845C453.07 117.574 452.796 121.468 452.79 125.247L452.779 199.689L452.796 296.042C452.822 300.32 453.173 304.816 452.588 309.053C450.499 324.179 431.169 331.906 419.309 322.395C413.913 318.069 408.677 309.309 404.573 303.624L217.05 44.7017C212.558 38.4532 206.308 32.0596 205.617 24.0395C204.665 12.9997 212.152 2.61374 223.621 1.79371Z"/>
	<path fill="#96C93D" transform="scale(2 2)" d="M82.289 1.79371C97.5231 0.913259 102.355 7.87773 110.727 19.2349L436.278 462.876C439.692 467.532 444.02 471.875 445.651 477.561C449.158 489.792 441.718 500.584 429.921 503.825C411.986 507.158 402.461 488.096 393.161 475.436L88.9752 60.2411C83.8106 53.2209 67.6732 34.2772 66.0237 26.3679C63.5474 14.4944 70.3959 4.18269 82.289 1.79371Z"/>
</svg>
