<svg xmlns="http://www.w3.org/2000/svg" width="25" height="24" fill="none"><g clip-path="url(#a)"><path fill="#F0F0F0" d="M14.292.11c.19-.018.383 0 .572.026.639.084 1.218.303 1.739.688.91.671 1.451 1.663 1.62 2.77.304-.009.606.01.902.08.945.225 1.767.853 2.271 1.68.54.885.647 1.81.405 2.81a3.084 3.084 0 0 1 .675.28 4.29 4.29 0 0 1 .398.265 3.8 3.8 0 0 1 .499.446 3.816 3.816 0 0 1 .468.604 3.836 3.836 0 0 1 .343.684 4.007 4.007 0 0 1 .188.65 3.468 3.468 0 0 1 .056.388 3.97 3.97 0 0 1-.986 3.014 3.52 3.52 0 0 1-.445.415 3.61 3.61 0 0 1-.78.47c-.259.114-.528.195-.798.277.01.75 0 1.31-.327 2.01a3.774 3.774 0 0 1-1.546 1.682 3.796 3.796 0 0 1-.59.273c-.956.342-2.074.253-2.99-.18-.004.737-.005 1.475-.002 2.213.003.35.029.7.014 1.05-.013.307-.064.674-.307.892a.855.855 0 0 1-.697.192.898.898 0 0 1-.477-.228.886.886 0 0 1-.272-.552c-.038-.265-.02-.533-.018-.8l.001-.965v-1.59c0-.31-.012-.624.008-.933.02-.287.087-.436.306-.627.166-.144.354-.27.53-.402.2-.149.433-.365.68-.421.257-.058.538.221.727.362a2.334 2.334 0 0 0 .461.26 2.006 2.006 0 0 0 1.508 0 2.157 2.157 0 0 0 .53-.303c.028-.021.054-.043.08-.065.565-.496.812-1.192.593-1.923-.076-.252-.213-.522-.19-.79a.78.78 0 0 1 .188-.425c.404-.506.834-.31 1.387-.426a1.994 1.994 0 0 0 .878-.43c.441-.38.684-.936.725-1.51.07-.99-.463-1.92-1.429-2.228-.492-.157-1.003-.023-1.376-.457-.524-.609-.094-.984.177-1.555a1.516 1.516 0 0 0 .146-.552c.033-.451-.157-.916-.452-1.252-.424-.483-1.09-.733-1.726-.586-.242.056-.496.17-.75.15a.782.782 0 0 1-.407-.156c-.56-.418-.271-1.287-.389-1.877a2.023 2.023 0 0 0-.473-.92c-.359-.413-.902-.72-1.454-.756a1.442 1.442 0 0 0-1.068.347c-.028.29.045.583.008.876a.484.484 0 0 1-.191.347c-.29.22-.799.248-1.145.198-.042-.007-.118-.017-.148-.049-.066-.069-.057-.571-.068-.694-.009-.1-.024-.2-.053-.295a1.016 1.016 0 0 0-.173-.326 1.077 1.077 0 0 0-.079-.072c-.283-.232-.755-.334-1.114-.294-.36.04-.74.217-1.03.429a2.197 2.197 0 0 0-.596.65c-.17.29-.253.596-.275.93-.029.45.085.938-.224 1.318-.41.505-.777.333-1.314.21a1.763 1.763 0 0 0-.595-.042c-.461.052-.883.334-1.165.694-.581.738-.504 1.54-.15 2.355.081.187.218.383.237.589.017.179-.073.383-.19.517-.141.16-.465.117-.664.133-.614.048-1.201.311-1.604.786a2.26 2.26 0 0 0-.51 1.642 2.192 2.192 0 0 0 1.636 1.961c.336.088.991.13 1.242.35.409.357.187.86.112 1.303-.04.238-.046.487-.03.728.035.502.273.945.652 1.273.593.513 1.513.638 2.19.214.293-.183.563-.611.927-.63a.556.556 0 0 1 .274.066c.254.126.476.336.705.503.15.108.32.2.454.327.19.179.22.39.227.638.008.322.001.646 0 .968v2.572c0 .26.015.534-.035.79a.827.827 0 0 1-.216.4.895.895 0 0 1-.65.266.868.868 0 0 1-.608-.246.907.907 0 0 1-.234-.484c-.032-.188-.024-.387-.024-.577L9 21.811l-.003-2.365c-.175.048-.34.123-.51.185a3.624 3.624 0 0 1-1.276.23 3.64 3.64 0 0 1-1.22-.223 3.5 3.5 0 0 1-.788-.407 3.582 3.582 0 0 1-.65-.57 3.607 3.607 0 0 1-.48-.677 3.528 3.528 0 0 1-.418-1.424c-.022-.288.002-.574-.009-.861a3.697 3.697 0 0 1-.643-.193c-.943-.39-1.723-1.193-2.11-2.136a3.93 3.93 0 0 1-.242-2.1 3.972 3.972 0 0 1 .267-.932c.441-1.048 1.193-1.782 2.245-2.21a2.927 2.927 0 0 1-.108-.857c-.004-.974.348-1.907 1.042-2.6a3.848 3.848 0 0 1 2.741-1.113c.077-.565.233-1.08.533-1.567a3.969 3.969 0 0 1 .734-.883 3.842 3.842 0 0 1 .872-.59 3.966 3.966 0 0 1 .81-.295c.658-.155 1.378-.145 2.003.129.254.11.488.258.723.404.615-.429 1.05-.548 1.78-.646Z"/></g><defs><clipPath id="a"><path fill="#fff" d="M.5 0h24v24H.5z"/></clipPath></defs></svg>