<?xml version="1.0" encoding="utf-8" ?>
<svg xmlns="http://www.w3.org/2000/svg" xmlns:xlink="http://www.w3.org/1999/xlink" width="1024" height="1024">
	<path fill="#96C93D" transform="scale(2 2)" d="M216.827 271.351C228.226 270.579 238.494 278.531 239.866 290.083C241.546 304.223 231.25 311.138 222.67 320.682C205.86 339.381 183.205 360.854 168.171 380.222C182.851 406.632 180.941 443.458 164.468 468.567C137.502 509.669 83.374 520.838 42.3111 493.721C25.5215 482.547 12.5791 465.611 6.98199 446.141C-7.19775 396.817 26.1056 343.85 77.5174 336.569C91.2783 334.62 119.267 336.498 131.063 345.368C139.37 336.563 150.031 326.961 158.883 318.614L194.972 284.493C202.982 277.042 205.521 272.59 216.827 271.351ZM86.8499 382.739C66.4829 383.362 49.467 402.541 50.327 422.727C51.3844 447.543 70.6024 461.775 94.1566 461.246C116.361 458.141 132.652 439.238 129.567 416.52C126.857 396.561 107.036 380.352 86.8499 382.739Z"/>
	<path fill="#96C93D" transform="scale(2 2)" d="M359.785 1.6225C364.137 1.38253 368.627 1.6125 372.995 1.61388L478.598 1.61583C504.665 1.67472 509.752 14.8528 509.748 38.4524L509.738 145.874C509.475 184.654 466.865 180.834 461.565 157.422C460.463 152.553 460.745 147.491 460.743 142.532L460.74 127.056C460.74 112.986 460.39 98.8206 460.747 84.7587C454.831 89.0036 448.99 96.1001 443.726 101.362L329.056 215.769C324.659 220.147 319.954 224.319 316.15 229.237C327.601 244.514 334.912 270.226 335.256 288.843C335.874 322.341 326.98 349.022 304.87 374.36C301.174 378.595 296.871 381.998 293.038 386.037L292.805 386.284C297.203 389.353 323.593 413.378 327.122 418.511C341.626 439.607 314.917 464.561 294.637 450.1C290.68 447.278 287.191 443.647 283.596 440.379C269.72 427.764 254.311 415.94 240.873 403.412C228.221 391.616 231.533 370.394 245.583 361.33C266.674 347.723 280.812 337.498 286.24 309.945C299.297 252.928 238.423 199.91 183.691 224.939C169.44 231.456 173.235 231.328 165.32 242.204C147.349 266.898 116.394 280.356 86.0237 275.356C35.8848 267.101 6.4631 213.623 24.8113 166.737C40.7928 125.898 88.769 107.375 128.817 123.299C155.052 133.731 166.619 152.438 176.91 176.496C179.541 175.013 182.269 174.311 185.198 173.63C223.944 164.622 250.985 173.621 282.837 193.476L415.315 60.8706C418.68 57.4692 422.782 54.4562 425.585 50.573C421.004 50.7362 416.365 50.5803 411.776 50.5808L369.069 50.5811C360.429 50.5781 353.1 50.8774 345.993 45.1376C329.653 31.9395 337.838 3.44937 359.785 1.6225ZM95.0555 165.342C50.9223 170.135 58.1755 232.532 101.062 229.237C142.513 225.609 138.082 161.221 95.0555 165.342Z"/>
</svg>
