<?xml version="1.0" encoding="utf-8" ?>
<svg xmlns="http://www.w3.org/2000/svg" xmlns:xlink="http://www.w3.org/1999/xlink" width="1024" height="1024">
	<path fill="#96C93D" transform="scale(2 2)" d="M255.126 1.79851C262.678 1.24398 267.615 5.62947 273.571 9.65947C335.185 51.3522 381.972 122.401 383.075 198.253C383.239 209.548 381.639 220.589 380.399 231.774C382.608 236.397 389.739 244.702 393.072 248.952L422.36 286.711C438.108 307.421 437.748 302.645 437.746 329.888L437.751 386.765C437.779 398.89 439.198 413.865 424.225 417.926C412.894 421 402.276 410.621 393.079 405.397L328.393 368.368C329.627 410.004 307.862 464.306 279.081 493.267C272.903 499.485 265.632 507.76 256.206 507.792C247.519 506.354 239.621 498.855 233.718 492.759C204.594 462.684 182.582 411.13 183.339 368.368C175.598 371.897 168.296 376.869 160.971 381.19L119.8 405.47C108.135 412.363 94.4397 424.944 81.2575 415.112C71.9966 408.204 74.029 395.436 74.0295 385.321L74.0246 328.17C74.0224 301.162 75.7723 305.866 90.6648 285.453L110.708 258.516C117.755 249.069 124.677 240.898 131.781 231.774C130.626 226.326 130.107 220.747 129.652 215.205C123.17 136.278 169.386 58.6671 232.37 13.8295C239.313 8.88713 246.596 3.43523 255.126 1.79851ZM256.206 39.9289C215.824 69.2023 185.555 107.217 172.082 155.732C159.709 200.287 162.613 250.15 198.347 283.411C213.899 297.887 236.072 306.552 257.1 307.43C277.414 307.579 300.262 295.745 314.561 281.64C349.11 247.561 353.69 199.27 340.143 154.505C326.877 110.665 300.5 73.3437 263.926 45.4868C261.447 43.5985 258.904 41.4842 256.206 39.9289ZM224.214 338.112C214.66 363.989 221.63 403.923 232.973 428.337C240.035 443.538 247.18 452.438 256.206 465.545C261.979 458.513 267.631 450.999 272.168 443.103C289.496 411.67 300.828 372.988 287.171 338.112C270.132 343.477 254.209 344.566 236.603 341.275C232.412 340.492 228.377 338.785 224.214 338.112ZM366.817 272.693C360.405 287.45 339.395 308.364 327.026 317.702C325.154 319.116 323.102 320.375 321.329 321.904C335.686 331.132 360.996 343.211 373.098 353.276C380.615 356.46 394.147 364.826 401.653 369.666C401.711 363.449 402.11 319.883 401.378 318.003C401.165 317.456 370.268 274.575 366.817 272.693ZM144.746 272.693C138.054 281.667 131.322 290.66 124.401 299.458L116.086 310.18C114.259 312.499 112.244 314.708 110.72 317.249C108.695 320.627 110.064 362.121 109.74 369.666C119.111 364.231 128.319 358.462 137.833 353.276L189.562 321.904C175.106 312.42 163.109 300.01 152.858 286.178C151.28 284.048 145.414 273.161 144.746 272.693Z"/>
	<path fill="#96C93D" transform="scale(2 2)" d="M253.051 110.304C274.034 108.416 273.513 127.174 273.494 142.253L273.507 164.352C273.511 177.973 273.751 175.667 282.887 184.96L298.973 201.127C304.976 207.072 314.04 214.134 309.735 223.789C307.483 228.839 300.663 235.356 295.36 237.285C285.465 239.486 280.313 232.952 274.091 226.726L257.281 209.717C241.242 193.4 237.724 196.04 237.723 172.16L237.719 134.376C237.721 121.954 239.061 113.248 253.051 110.304Z"/>
</svg>
