<svg xmlns="http://www.w3.org/2000/svg" width="24" height="24" fill="none"><path fill="#F0F0F0" d="M11.932 1.06c.761-.087.874.596.874 1.15V5.4c.224.168.431.37.643.553 1.596 1.388 3.205 2.745 4.434 4.49.455.645.09.387.84.748.975.469 1.867 1.056 2.652 1.807 2.373 2.272 3.21 5.87 2.002 8.93-.256.649-.339.665-1.047.666H2.449c-.4 0-.807.02-1.205-.002-.434-.024-.532-.416-.664-.764-1.544-4.09.617-8.697 4.524-10.526.884-.414.46-.14.998-.923.645-.94 1.338-1.607 2.158-2.384A73.79 73.79 0 0 1 11.168 5.4V2.186c.004-.54.07-1.058.764-1.127Zm.048 5.817c-1.285 1.144-4.889 3.897-4.997 5.732-.085 1.43 1.454 3.003 2.084 4.234.744 1.454.407 2.638.336 4.094h2.693l2.086-.001c.14-.001.28-.015.42.001-.388-1.462-.234-3.158.529-4.47.582-1.005 2.132-2.87 1.81-4.115-.461-1.781-3.14-3.869-4.567-5.14-.125-.11-.244-.26-.394-.335Zm-6.658 6.178c-.501.304-.97.629-1.4 1.029-1.658 1.541-2.498 3.894-2.077 6.127.048.254.13.5.187.751.776.015 1.556 0 2.333 0l2.886.002c.116 0 .24.01.355-.002.379-.989.46-2.355.03-3.322-.63-1.42-1.86-2.434-2.222-4.12-.03-.143-.027-.328-.07-.458l-.022-.007Zm13.335 0c-.283 2.655-2.55 3.564-2.549 6.105 0 .623.121 1.18.295 1.777.36.015.726 0 1.087 0h4.019c.108 0 .219-.007.326 0 1.128-2.794-.291-5.96-2.7-7.583-.137-.092-.317-.263-.478-.3Z"/></svg>