<svg xmlns="http://www.w3.org/2000/svg" width="24" height="24" fill="none"><path fill="#B0B0B0" d="M12.211 4.775a6.47 6.47 0 0 1 2.4.324 6.527 6.527 0 0 1 .656.257 7.24 7.24 0 0 1 1.244.708 7.294 7.294 0 0 1 1.206 1.066 7.405 7.405 0 0 1 1.271 1.94 7.24 7.24 0 0 1 .592 3.323 8.006 8.006 0 0 1-.064.615 7.047 7.047 0 0 1-.193.908c-.073.26-.16.514-.261.764-.06.145-.127.287-.184.433.192.139.353.325.52.492l.771.77 2.774 2.777c.52.527.826 1.168.82 1.918a2.68 2.68 0 0 1-.263 1.158 2.749 2.749 0 0 1-.535.756c-.495.486-1.127.708-1.814.701-1.181-.012-1.847-.78-2.607-1.552a255.445 255.445 0 0 0-3.04-3.005c-.16-.163-.32-.34-.51-.468-.663.269-1.343.454-2.062.49a7.784 7.784 0 0 1-.723.008 6.816 6.816 0 0 1-.72-.064 7.144 7.144 0 0 1-1.234-.283 7.348 7.348 0 0 1-1.787-.863 7.135 7.135 0 0 1-.857-.667c-1.464-1.323-2.283-3.092-2.383-5.061a6.942 6.942 0 0 1 .093-1.56 7.004 7.004 0 0 1 1.292-3.01 6.994 6.994 0 0 1 .443-.536c1.318-1.454 3.215-2.241 5.155-2.34Zm.286 12.49c1.337-.022 2.8-.61 3.734-1.577.957-.99 1.529-2.365 1.503-3.748a5.541 5.541 0 0 0-.196-1.334 5.222 5.222 0 0 0-.274-.763 5.098 5.098 0 0 0-.244-.482 5.642 5.642 0 0 0-.537-.778 5.204 5.204 0 0 0-.462-.493c-1-.962-2.327-1.466-3.71-1.463-1.46.059-2.845.662-3.84 1.74a5.254 5.254 0 0 0-.755 1.045 5.212 5.212 0 0 0-.577 1.707 5.186 5.186 0 0 0-.052 1.031c.059 1.397.68 2.787 1.713 3.736 1.046.96 2.286 1.399 3.697 1.379Zm4.194.488c.113.08.21.188.31.284.17.162.337.326.503.492l2.13 2.126.64.642c.116.117.228.243.352.35.095.083.192.144.308.191.253.049.5.038.72-.11a.755.755 0 0 0 .34-.494.667.667 0 0 0-.122-.521c-.18-.248-.425-.46-.645-.67-.207-.197-.41-.397-.611-.6l-1.5-1.5c-.266-.272-.522-.557-.794-.823-.095-.093-.39-.391-.491-.436-.218.204-.408.438-.625.643-.162.153-.353.272-.515.426Z"/></svg>