<svg width="45" height="45" viewBox="0 0 45 45" fill="none" xmlns="http://www.w3.org/2000/svg">
<path d="M42.8069 1.16478C43.518 1.1314 44.1578 1.40907 44.4552 2.09857C44.8145 2.93151 44.2464 4.21147 44.0271 5.03809L36.2474 33.6511C36.0128 34.4743 35.7181 35.9071 35.4278 36.6394C34.7246 38.4129 33.0363 37.5841 31.8936 37.0254C30.485 36.3366 29.0528 35.6855 27.6315 35.0233L21.6219 32.1818C20.7355 31.7695 19.6745 31.1815 18.794 30.8348L18.7585 30.821C19.247 32.9826 19.6409 35.5819 20.2588 37.6682C20.6119 37.2611 21.5295 36.333 21.9638 36.0919C22.9055 36.3683 24.5702 37.2342 25.4738 37.6682C25.3082 37.8763 25.0906 38.0591 24.9 38.2446C23.8131 39.3019 22.7461 40.3856 21.679 41.4625C20.6453 42.5055 19.2818 44.3346 17.7876 42.5528C17.4011 41.9036 17.2346 40.48 17.0657 39.6988L14.7553 28.9394C13.6152 28.278 12.3627 27.773 11.175 27.2043L3.38672 23.4697C2.36131 22.967 0.28183 22.4105 0.199476 21.0134C0.117149 19.6167 1.27126 19.2758 2.28957 18.8181L41.2954 1.6816C41.7891 1.4594 42.2546 1.19036 42.8069 1.16478ZM6.30098 20.8869C7.01595 21.3214 8.12173 21.7568 8.90619 22.1321L16.6479 25.9235C16.997 26.0922 17.3556 26.2544 17.6868 26.4567C18.3072 25.9914 18.872 25.4195 19.427 24.8779L26.9453 17.4304C27.9618 16.4318 28.9553 15.4114 29.9875 14.4286C30.5391 13.8919 31.916 12.3847 32.545 12.0704C34.1271 11.2796 35.7836 13.1674 34.6325 14.6197C34.4286 14.877 34.1765 15.1035 33.9435 15.3347L21.0916 28.0487L29.3408 32.0285C30.4794 32.5736 31.6481 33.0733 32.7686 33.653C33.0355 32.4616 33.3538 31.2648 33.6717 30.0862L38.7068 11.7239C38.9127 10.9718 40.2933 6.1524 40.2507 5.82166L7.15728 20.4787C6.87134 20.6094 6.56917 20.7223 6.30098 20.8869Z" fill="#1A1A1A"/>
</svg>
