<svg xmlns="http://www.w3.org/2000/svg" width="25" height="25" fill="none"><g fill="#F0F0F0" clip-path="url(#a)"><path d="M12.266.145c.982-.019 1.986-.12 2.653.745.404.523.5 1.204.418 1.848.914.048 1.617.64 2.373.913.155-.067.253-.202.363-.324a1.845 1.845 0 0 1 2.39-.304c.254.167 1.176 1.083 1.363 1.36.28.414.377.865.266 1.354-.183.803-.633.848-.957 1.37.29.71.901 1.457.975 2.295.538.003.977-.057 1.474.214.683.373 1.003 1.063 1.01 1.831v.667c-.001 1.737-.81 2.161-2.418 2.16a9.15 9.15 0 0 1-.716 1.79c-.113.217-.288.458-.378.676.438.572 1.01.779 1.031 1.692.017.754-.266.99-.734 1.458-.607.604-.951 1.18-1.918 1.197-.825.016-1.257-.357-1.818-.897-.856.415-1.366.703-2.306 1.014-.051 1.35-.12 2.023-1.628 2.48l-.93-.001c-1.75-.01-2.32-.789-2.318-2.479-.588-.247-1.173-.409-1.773-.695-.701-.335-.584-.383-1.087.079-.691.635-1.781.663-2.481.02-.6-.552-1.385-1.237-1.418-2.06-.032-.82.375-1.302.896-1.87-.484-.73-.758-1.564-.98-2.404-.733.003-1.32.024-1.882-.537-.385-.386-.555-.838-.556-1.377v-.743c.002-.67.063-1.15.56-1.647.627-.627 1.146-.566 1.928-.568.187-.83.616-1.54.979-2.294-.415-.575-.992-.92-1.03-1.703-.04-.879.427-1.183.97-1.727.507-.505.832-.915 1.607-.941.774-.027 1.331.407 1.873.914.586-.41 1.669-.8 2.348-.966.001-.722-.03-1.245.466-1.838.362-.433.829-.65 1.385-.702ZM13.71 22.18l.01-.008c.444-.368.079-1.195.261-1.76.163-.503.724-.563 1.16-.693a7.075 7.075 0 0 0 1.713-.79c.157-.098.486-.355.64-.405.749-.244 1.136.92 1.721 1.175.407.176.719-.297.957-.544.204-.212.465-.4.558-.69-.19-.43-.587-.72-.916-1.04-.564-.546-.44-.716-.06-1.252.45-.638.761-1.359.998-2.1.09-.282.161-.933.354-1.103.402-.353 1.804.2 2.055-.39.07-.165.062-1.315-.01-1.47-.254-.55-1.478-.146-1.913-.316-.364-.142-.368-.71-.463-1.024-.207-.68-.483-1.355-.858-1.961-.197-.318-.488-.62-.35-1.024.173-.502 1.31-.982 1.042-1.576-.076-.168-.654-.74-.817-.871-.704-.563-1.182.652-1.724.89-.388.17-.744-.166-1.058-.342a8.104 8.104 0 0 0-1.774-.759c-.379-.104-1.023-.126-1.23-.526-.264-.511.229-1.754-.386-1.963-.156-.053-1.163-.057-1.353-.04-.388.086-.44.378-.438.724l.004.645c.005 1.022-.285.904-1.196 1.142a6.623 6.623 0 0 0-1.812.762c-.744.465-.79.582-1.483.049l-.553-.426c-.215-.163-.491-.424-.765-.218-.15.112-.797.743-.88.887-.18.306.476.935.687 1.199.682.85.389.87-.062 1.643a7.453 7.453 0 0 0-.782 1.893c-.091.362-.101.76-.53.889-.54.163-1.745-.26-1.86.483-.036.232-.053 1.039.016 1.252.105.32.343.34.636.34l.644-.004c1.083-.004.888.37 1.112 1.182.189.686.523 1.5.916 2.094.157.237.41.477.266.782-.089.19-.623.82-.796 1.035-.205.258-.429.486-.184.794.143.179.766.805.955.894.373.175 1.002-.54 1.258-.77.63-.564.76-.29 1.397.069a9.59 9.59 0 0 0 1.76.777c1.14.367 1.318.513 1.314 1.84-.002.78.387.697 1.05.698.259 0 .524.031.769-.073Z"/><path d="M12.702 7.17c1.452-.042 2.757.512 3.74 1.604 1.97 2.187 1.451 5.694-1.11 7.226-.726.435-1.379.621-2.22.68-3.088.039-5.42-2.498-4.898-5.588.37-2.184 2.283-3.808 4.488-3.922Zm.523 8.07c.209-.04.417-.076.62-.14 1.616-.5 2.625-2.123 2.301-3.8-.268-1.39-1.458-2.546-2.879-2.693-.233-.025-.47-.019-.704-.014-1.904.234-3.195 1.934-2.951 3.83.191 1.49 1.54 2.71 3.028 2.81.194.012.39 0 .585.006Z"/></g><defs><clipPath id="a"><path fill="#fff" d="M.89.05h24v24h-24z"/></clipPath></defs></svg>