<svg xmlns="http://www.w3.org/2000/svg" width="120" height="120" fill="none"><g clip-path="url(#a)"><path fill="#96C93D" d="M118.252.927c1.026-.067.976.548.841 1.4-.25 1.57-.623 3.126-.951 4.68l-6.031 29.402c-.935-.628-1.761-1.672-2.574-2.464l-2.758-2.696c-.687-.662-1.51-1.318-2.053-2.1-.059-.497 1.671-8.563 1.974-9.942-1.234.937-2.315 2.277-3.422 3.371l-39.06 39.007c-3.113 3.035-6.288 6.619-9.551 9.431-1.56-1.627-4.523-4.162-5.691-5.836L77.16 36.746c1.852-1.885 3.672-3.784 5.574-5.62-3.71-2.221-8.045-4.276-11.912-6.342l-6.569-3.503c-1.361-.723-2.741-1.58-4.206-2.074-1.822.738-3.544 1.796-5.273 2.726L29.18 35.334c-1.206 28.084 8.864 52.154 28.877 71.353.62.594 1.266 1.288 1.99 1.754 1.465-.693 4.797-4.522 6.082-5.88 14.285-15.1 24.427-36.545 24.803-57.56.02-1.177-.164-3.113.228-4.188 1.272-3.486 6.566-4.3 8.198-.618.851 1.92.284 8.926.025 11.136-.95 8.125-3.094 16.394-6.044 23.996-5.453 14.606-14.372 26.81-25.426 37.589l-3.1 2.99c-3.643 3.541-4.765 4.335-8.656.756-7.017-6.456-13.577-13.392-18.91-21.32-.989-1.47-1.892-2.995-2.9-4.453-1.917 1.578-3.536 3.566-5.295 5.32l-5.22 5.17c-.767.769-1.59 1.517-2.294 2.343 2.414.804 4.913 1.341 7.33 2.166 1.135-.882 2.024-2.146 3.203-2.92 2.001 2.031 3.967 4.09 5.986 6.106-.794.844-1.692 1.62-2.512 2.445l-2.389 2.417c-.497.507-1.038 1.19-1.633 1.57-.806-.23-1.597-.507-2.4-.748l-12.918-3.998c-5.53-1.71-5.71-.873-7.328-7.073L5.876 92.686c-.404-1.453-1.363-4.316-1.352-5.7.012-1.617 1.288-2.496 2.34-3.564l3.666-3.656c1.342-1.32 2.629-2.697 3.978-4.009 1.608 1.397 4.37 4.314 5.83 5.954-1.912 2.195-4.867 5.088-6.97 7.068.646 1.267 1.935 7.234 2.317 8.842 1.076-.995 2.06-2.103 3.096-3.142l5.965-5.966c1.77-1.795 3.517-3.639 5.373-5.346-6.876-15.727-10.134-30.064-9.487-47.47.046-1.242.039-4.28.662-5.304.716-1.177 8.12-4.675 9.597-5.446L55.368 12.07c4.55-2.345 5.041-2.332 9.227-.11l20.04 10.461c1.481.76 2.982 1.509 4.407 2.37 2.171-2.032 4.205-4.235 6.3-6.344l3.048-3.055c.707-.702 1.439-1.387 2.099-2.133-2.016.38-4.463 1.123-6.5 1.649-3.522.91-2.252.76-4.862-1.92-5.779-5.932-6.471-4.223 1.577-6.064l24.388-5.386c1.047-.227 2.096-.483 3.16-.611Z"/></g><defs><clipPath id="a"><path fill="#fff" d="M0 .5h120v120H0z"/></clipPath></defs></svg>