<?xml version="1.0" encoding="utf-8" ?>
<svg xmlns="http://www.w3.org/2000/svg" xmlns:xlink="http://www.w3.org/1999/xlink" width="1024" height="1024">
	<path fill="#96C93D" transform="scale(2 2)" d="M68.0666 307.225C74.1975 307.241 80.2296 307.051 84.9807 311.57C90.582 316.897 90.5407 328 85.1831 333.449C78.6071 340.137 67.9229 337.934 59.5077 337.923L23.0536 337.919C17.1457 338.107 11.3958 338.294 6.61291 334.258C0.358674 328.98 -0.0188953 318.727 5.24818 312.641C11.0043 305.991 21.4129 307.227 29.3044 307.214L55.1966 307.225C59.3075 307.237 63.4981 307.581 67.5935 307.264L68.0666 307.225Z"/>
	<path fill="#96C93D" transform="scale(2 2)" d="M438.194 307.225C441.189 306.988 444.323 307.214 447.335 307.216L485.7 307.218C489.691 307.215 493.95 306.918 497.888 307.594C514.723 310.487 515.209 336.933 494.738 337.919L456.798 337.928C448.053 337.927 434.281 340.172 427.206 333.589C417.693 324.736 422.572 307.643 438.194 307.225Z"/>
	<path fill="#96C93D" transform="scale(2 2)" d="M482.656 210.581C495.755 210.204 503.02 226.425 493.876 236.137C488.535 241.809 476.049 244.479 468.905 247.157C459.722 250.598 435.355 261.562 427.705 261.779C414.704 261.644 406.639 246.274 416.11 236.16C419.88 232.135 426.621 230.631 431.63 228.832L467.788 215.187C472.631 213.327 477.371 210.765 482.656 210.581Z"/>
	<path fill="#96C93D" transform="scale(2 2)" d="M77.0565 126.314C86.1972 125.781 90.7057 131.74 97.024 137.333L120.233 158.245C124.703 162.345 129.902 166.254 133.791 170.896C141.918 180.595 135.988 193.022 123.75 195.662C115.339 196.548 111.369 191.963 105.677 186.838L75.2679 159.221C72.2667 156.51 69.0584 153.942 66.4126 150.875C58.594 141.813 65.5142 128.79 77.0565 126.314Z"/>
	<path fill="#96C93D" transform="scale(2 2)" d="M28.1401 210.581C34.6552 210.065 42.5172 214.319 48.4816 216.464L72.3105 225.004C78.3539 227.238 85.2482 229.054 90.955 231.927C105.25 239.123 101.148 256.808 85.8664 261.779C78.5304 261.128 72.5888 258.33 65.7492 255.881L38.8272 246.005C32.8714 243.815 25.6199 242.333 20.4353 238.592C8.96349 230.315 14.9339 212.445 28.1401 210.581Z"/>
	<path fill="#96C93D" transform="scale(2 2)" d="M433.283 126.314C441.032 125.896 448.144 130.264 449.796 138.233C452.319 150.408 441.311 155.879 433.363 162.652C425.414 169.425 399.974 193.736 390.812 195.662C383.035 196.181 375.617 190.67 374.066 182.991C371.516 170.365 384.845 163.657 393.038 156.881C400.048 151.082 406.947 145.104 413.912 139.243C420.163 133.984 424.922 127.798 433.283 126.314Z"/>
	<path fill="#96C93D" transform="scale(2 2)" d="M350.447 70.3129C357.783 67.7506 366.565 73.8371 368.171 81.123C370.034 89.5713 354.866 119.194 351.054 127.941C346.682 137.973 344.938 151.07 332.535 153.719C327.613 154.228 322.692 153.389 318.95 149.908C308.86 140.521 317.261 129.204 321.237 119.339C325.107 109.736 329.152 100.203 333.292 90.7138C336.674 82.9622 339.827 69.9003 350.447 70.3129Z"/>
	<path fill="#96C93D" transform="scale(2 2)" d="M157.821 70.3129C169.326 69.5975 172.848 78.2724 176.948 86.8631C180.915 95.1761 184.594 103.645 188.405 112.033C194.773 126.048 209.668 147.513 184.309 153.719C171.992 153.448 169.169 144.819 164.635 135.446L154.567 114.237C148.458 101.223 131.319 74.6551 157.821 70.3129Z"/>
	<path fill="#96C93D" transform="scale(2 2)" d="M254.51 47.3424C272.636 46.1762 271.538 63.731 271.541 75.6576L271.554 113.206C271.655 124.474 271.64 134.4 258.256 136.962C241.436 139.985 240.392 122.606 240.384 111.252L240.384 72.4974C240.392 60.642 239.97 49.2008 254.51 47.3424Z"/>
	<path fill="#96C93D" transform="scale(2 2)" d="M250.307 152.257C331.01 149.128 398.944 214.201 404.681 293.863C405.054 299.046 405.707 304.612 403.132 309.365C398.951 317.082 389.054 319.418 381.473 315.303C372.185 310.262 373.637 301.339 372.788 292.307C365.55 215.365 293.712 168.732 220.567 190.186C188.537 202.864 165.526 219.86 150.14 252.337C139.863 274.031 136.21 306.822 143.006 330.273C145.018 337.215 148.525 343.275 143.608 349.988C137.24 358.68 123.438 362.315 117.282 351.191C115.887 348.671 115.119 345.793 114.285 343.051C92.7995 272.373 128.377 194.965 196.601 165.081C214 157.46 231.505 154.176 250.307 152.257Z"/>
	<path fill="#96C93D" transform="scale(2 2)" d="M252.758 256.078C259.159 255.507 264.366 261.343 269.28 264.555L322.762 299.486C326.997 302.169 332.136 304.768 335.701 308.264C332.817 308.382 329.846 309.008 326.992 309.44C273.83 317.476 233.697 332.249 188.577 362.237C181.146 367.176 173.206 372.159 166.724 378.321C170.629 381.967 174.581 385.745 178.765 389.063C236.213 434.613 315.388 423.98 355.29 363.171C358.286 358.605 359.778 352.962 364.298 349.549C375.473 341.113 384.551 349.586 392.309 357.403C414.445 379.711 431.58 405.092 444.075 433.956C446.314 439.129 449.153 444.312 448.098 450.128C445.629 463.733 428.447 466.442 420.742 455.881C417.994 452.113 417.057 446.72 415.117 442.476C411.038 433.556 406.284 424.474 400.941 416.254C395.235 407.162 385.388 392.868 377.778 385.704C322.657 464.681 207.688 468.242 143.312 397.982C140.252 402.111 135.912 405.657 132.221 409.238C119.461 421.615 107.424 435.636 97.027 450C94.0414 454.125 91.2442 458.918 86.6841 461.504C75.0214 468.117 60.5692 456.86 64.2761 444.117C67.9721 431.411 110.234 386.276 125.088 372.692C157.848 342.732 196.362 317.729 237.184 300.446C243.778 297.655 251.783 295.301 257.925 291.818L258.256 291.628C254.36 289.796 250.173 288.032 246.675 285.506C235.852 277.689 238.679 258.288 252.758 256.078Z"/>
</svg>
