<svg xmlns="http://www.w3.org/2000/svg" width="24" height="25" fill="none"><path fill="#F0F0F0" d="M11.914 13.772a.865.865 0 0 1 .266 1.71c-1.1.171-1.457-1.495-.266-1.71ZM12.182 5.13c3.058-.169 4.9 3.486 2.293 5.398-.447.328-.928.6-1.28 1.04-.361.453-.248.944-.5 1.274-.282.372-.863.44-1.229.154-.742-.581-.028-1.98.45-2.595.195-.156.386-.373.6-.547.518-.42 1.491-.869 1.433-1.663-.114-1.57-2.697-1.876-3.336-.384-.097.226-.14.464-.309.655-.521.59-1.677.219-1.435-.89.33-1.516 1.84-2.393 3.313-2.442ZM12.024 16.88l.028-.001c1.685-.037 3.125 1.419 3.154 3.086a3.176 3.176 0 0 1-3.15 3.226c-2.788.035-4.274-3.279-2.353-5.323.623-.664 1.425-.962 2.321-.989Zm-.11 1.744c-1.925.213-1.542 3.042.267 2.807 1.998-.373 1.468-2.963-.266-2.807Z"/><path fill="#F0F0F0" d="M12.021 1.912c2.748-.059 5.347 1.383 6.868 3.66.246.37.453.773.655 1.168.318.132.653.226.97.364 2.402 1.047 3.806 3.627 3.295 6.218-.654 3.311-4.2 5.363-7.34 4.137-.18-.07-.355-.171-.546-.208l-.02-.004c-.091.03-.171.081-.256.125-.723.37-1.45-.188-1.33-.963.076-.493.561-.634.945-.83 1.645-.843 2.918-2.753 3.184-4.553.752-5.072-4.602-9.156-9.221-6.637a5.337 5.337 0 0 0-.635.39c-1.231.83-2.08 2.187-2.506 3.587-.192.016-.391-.005-.585.003-2.822.107-4.609 3.183-3.243 5.665.93 1.69 3.135 2.557 4.909 1.717.266-.126.494-.297.75-.436l.012-.006c.455.25 1.669.853 1.743 1.336a.847.847 0 0 1-.704.97c-.379.054-.61-.156-.892-.368-2.8 1.503-6.26.032-7.524-2.808-1.432-3.216.546-6.8 3.9-7.642.143-.036.292-.049.434-.092L4.9 6.7c.13-.218.225-.467.346-.692a7.92 7.92 0 0 1 1.53-1.972C8.364 2.55 9.94 2.069 12.021 1.912Zm8.135 6.93v.015c.01.228.054.454.072.682.168 2.204-.63 4.33-2.117 5.957-.092.1-.427.397-.46.478l.006.022c.399.156 1.414.034 1.81-.076 2.023-.612 3.21-2.782 2.59-4.813-.244-.795-1.107-1.93-1.901-2.264Z"/></svg>