<svg xmlns="http://www.w3.org/2000/svg" width="24" height="24" fill="none"><path fill="#F0F0F0" d="M16.218 1.972c.737-.039.583.843.583 1.308v.608c0 .372.015.759-.468.831-.6.078-.587-.532-.587-.905v-.705c0-.445-.127-1.04.472-1.137ZM12.39 12.825c.461-.031.803.372.578.754-.105.177-.286.33-.429.478l-.618.633c-.167.17-.322.401-.562.461a.559.559 0 0 1-.595-.402c-.087-.387.245-.604.477-.85l.611-.64c.15-.156.314-.387.538-.434ZM10.555 9.012c1.287-.068.994.943.522 1.063-.188.048-.412.024-.605.024l-.877-.001c-.246.002-.502.024-.704-.145-.328-.273-.255-.808.187-.917.186-.047.403-.025.594-.025h.883ZM21.56 9.012c.51-.019 1.327-.037 1.832.002.638.05.692.895.062 1.084-.113.008-.23.001-.343.001l-1.265-.002c-.1 0-.208.005-.306-.009-.613-.085-.625-.964.02-1.076ZM19.958 12.872c.359.002.578.357.805.585l.617.614c.102.103.224.208.31.325.245.336 0 .794-.448.846-.35.05-.84-.605-1.047-.819-.188-.193-.51-.488-.661-.695-.265-.364.013-.813.424-.856ZM11.154 3.822c.416-.023.668.389.926.656.392.405 1.673 1.421.61 1.827-.496-.047-.63-.34-.957-.682-.227-.237-.946-.876-1.01-1.183a.518.518 0 0 1 .43-.618ZM21.31 3.87c.402-.02.73.49.478.831-.247.334-.782.832-1.082 1.13-.196.196-.35.428-.639.474-.495.008-.77-.47-.48-.854.13-.171.288-.319.439-.47l.64-.638c.193-.19.354-.434.643-.472ZM16.287 14.264c.72.008.56.995.56 1.453v.664c-.001.436.027.863-.51.937-.618-.002-.587-.504-.587-.952v-.668c0-.587-.193-1.302.537-1.434ZM4.834 4.42c.287-.016.465.22.638.413 1.374 1.54 1.487 3.676.32 5.382-.217.318-.497.786-.908.863-.324-.006-.564-.29-.755-.52-1.233-1.482-1.4-3.574-.311-5.191.243-.362.556-.857 1.016-.946Z"/><path fill="#F0F0F0" d="M.606 10.174c.474-.04 1.132.244 1.547.473 1.19.658 2.248 1.976 2.625 3.28.656-1.363.964-2.206 2.393-3.095.378-.234 1.857-.962 2.184-.367.183.334-.03 1.334-.14 1.713-.485 1.541-1.72 2.903-3.31 3.324-2.496.66-4.905-1.048-5.537-3.47-.124-.476-.475-1.705.238-1.858Z"/><path fill="#F0F0F0" d="M.566 15.388c1.882-.096 3.365 1.615 4.028 3.211.125.301.172.644.29.902.085-1.59 1.602-3.435 3.099-3.912 1.014-.322 1.494-.291 1.434.862-.047.887-.231 1.569-.673 2.34-.85 1.5-1.793 1.964-3.34 2.34-.005.37.09 1.564-.135 1.796-.18.186-.52.221-.71.028-.22-.225-.161-.637-.162-.922v-.901c-2.495-.462-4.15-2.41-4.245-4.98-.014-.373-.003-.66.414-.764ZM16.123 5.884c2.055-.019 3.784 1.447 3.834 3.558.048 2-1.5 3.837-3.54 3.884a3.823 3.823 0 0 1-2.58-.924c-1.495-1.282-1.681-3.698-.39-5.188.73-.844 1.57-1.25 2.676-1.33Z"/></svg>