<svg width="1016" height="1016" viewBox="0 0 1016 1016" fill="none" xmlns="http://www.w3.org/2000/svg">
<path d="M134.357 517.283C135.81 507.023 134.973 495.77 134.968 485.408L134.861 228.307C134.765 208.414 135.883 196.28 145.833 178.512C167.765 139.345 200.094 136.68 239.333 136.698L404.235 136.714L825.229 136.721C839.06 136.729 854.27 135.153 867.897 137.034C906.297 142.334 937.938 174.401 940.954 213.422C942.069 227.855 941.472 242.642 941.458 257.121L941.47 775.079C941.468 785.583 941.994 796.461 940.66 806.885C935.058 850.621 894.591 873.691 853.465 873.215L237.561 873.179C208.619 873.179 184.839 874.836 161.261 854.02C134.651 830.527 135.036 804.589 134.936 772.488C134.82 735.396 138.384 732.508 162.565 708.769L412.119 463.589C444.716 431.718 450.606 433.635 482.681 465.542L623.346 603.333C647.26 579.64 670.608 555.357 694.325 531.467C715.272 510.369 731.594 523.704 748.689 540.288C760.586 551.827 772.226 563.65 783.966 575.348C790.475 581.914 797.346 588.133 803.917 594.646L884.544 674.388L884.55 268.666C884.55 245.115 893.696 195.792 860.968 192.438C853.316 191.654 844.936 192.626 837.191 192.645L254.511 192.664C242.692 192.658 230.344 191.694 218.588 192.422C187.84 194.326 192.1 224.039 192.114 246.177L192.127 440.713C192.127 464.407 192.934 488.567 192.131 512.197C207.444 500.959 238.239 467.203 252.991 451.927C262.77 441.803 273.133 427.134 288.466 426.051C315.924 424.11 327.785 455.449 307.788 476.551C280.826 505.007 252.852 532.654 225.396 560.643L198.297 588.143C168.241 618.363 157.159 618.452 129.051 590.213L40.9218 503.011C33.5575 495.728 10.4909 474.41 6.4144 467.147C-6.78949 443.626 22.6204 415.055 45.4263 429.853C56.5599 437.076 75.0448 457.85 84.8565 467.584C101.361 483.955 119.138 499.735 134.357 517.283ZM445.871 507.768C434.967 520.464 422.757 531.788 410.793 543.459L209.301 742.454C203.435 748.3 196.494 754.212 192.131 761.26C192.112 786.95 186.859 818.045 221.965 817.954L712.512 817.857L841.233 817.898C867.044 817.964 885.248 814.987 884.808 784.793L884.544 752.007C870.8 736.259 854.753 721.995 839.876 707.299L757 625.235C744.453 612.799 731.058 601.01 719.537 587.583C705.148 602.168 652.812 658.503 637.153 667.653C612.912 681.816 591.193 651.887 576.687 637.552L466.151 528.349C461.911 524.127 450.481 509.917 445.871 507.768Z" fill="#96C93D"/>
</svg>
