<svg xmlns="http://www.w3.org/2000/svg" width="24" height="24" fill="none"><g clip-path="url(#a)"><path fill="#F0F0F0" d="M11.671.073c.457 0 .918-.015 1.373.02 2.522.193 5.118.976 7.028 2.688 1.786 1.6 3.018 3.764 3.525 6.105.523 2.407.656 5.127-.793 7.245-1.732 2.532-5.237 3.186-7.386.87-.195-.209-.344-.46-.528-.678-1.049 1.093-2.257 1.833-3.802 2.024-3.235.401-5.59-2.138-5.68-5.273-.057-1.975.738-4.023 2.073-5.48 1.207-1.316 3.075-2.15 4.868-2.007 1.155.092 2.421.508 3.197 1.418.028-.35.042-.737.26-1.03.526-.704 1.67-.392 1.809.476.066.417-.1 1.63-.15 2.095l-.247 2.15a38.714 38.714 0 0 1-.45 2.915c-.185.933-.415 1.609.465 2.272 1.543 1.164 3.62.136 4.259-1.577.468-1.256.401-3.01.205-4.326-.352-2.372-1.584-4.608-3.52-6.039-3.603-2.58-9.188-2.38-12.643.361-4.707 3.735-4.4 12.65.703 15.923 2.98 1.911 7.976 2.16 11.051.402.532-.304 1.101-.625 1.662-.12.425.383.464 1.03.076 1.455-.217.238-.552.377-.832.526-3.137 1.667-7.406 1.885-10.721.639-4.386-1.65-6.915-5.462-7.31-10.11-.298-3.498.631-6.745 3.058-9.375 2.111-2.287 5.4-3.449 8.45-3.569Zm-1.077 16.326c2.717.014 4.544-2.94 4.52-5.431-.018-1.694-1.049-3.441-2.912-3.415a.707.707 0 0 0-.085.005c-2.828.02-4.575 2.884-4.552 5.486.016 1.785 1.168 3.318 3.029 3.355Z"/></g><defs><clipPath id="a"><path fill="#fff" d="M0 0h24v24H0z"/></clipPath></defs></svg>