<svg xmlns="http://www.w3.org/2000/svg" width="24" height="24" fill="none"><path fill="#1A1A1A" d="M12.18 19.336c-3.998.169-7.876-1.85-10.48-4.803C1.274 14.049.13 12.572.095 11.96c-.014-.234.14-.474.247-.672 1.963-3.643 6.195-6.354 10.266-6.783.402-.043.806-.06 1.21-.085h.03c4.81-.035 9.461 2.672 11.774 6.888.317.577.342.653.046 1.257-1.105 2.261-3.49 4.196-5.698 5.357a12.338 12.338 0 0 1-5.79 1.413Zm-.62-13.222c-.648.066-1.254.127-1.893.268-2.68.591-5.095 2.129-6.825 4.252-.273.336-.726.927-.9 1.311.27.408.517.825.826 1.207 2.128 2.638 5.333 4.32 8.722 4.457.326.012.655.005.982.004 3.822-.117 7.704-2.305 9.589-5.668-1.903-3.376-5.736-5.679-9.605-5.827-.298-.01-.598-.004-.896-.004Z"/><path fill="#1A1A1A" d="M12.038 17.092a5.234 5.234 0 0 1-1.502-.215 5.067 5.067 0 0 1-1.16-.506 5.079 5.079 0 0 1-.818-.6 5.131 5.131 0 0 1-1.096-1.386 5.185 5.185 0 0 1-.48-3.69 5.174 5.174 0 1 1 5.056 6.397Zm-.242-8.635a3.448 3.448 0 0 0-1.605.509 3.401 3.401 0 0 0-.663.53 3.523 3.523 0 0 0-.67.977 3.414 3.414 0 0 0-.285.976 3.485 3.485 0 0 0 .247 1.832 3.477 3.477 0 0 0 2.216 1.967 3.427 3.427 0 0 0 1.007.14 3.566 3.566 0 0 0 .842-.113 3.438 3.438 0 0 0 1.353-.697 3.598 3.598 0 0 0 .476-.486 3.387 3.387 0 0 0 .447-.723 3.381 3.381 0 0 0 .258-.81 3.443 3.443 0 0 0-.054-1.52 3.437 3.437 0 0 0-.593-1.219 3.543 3.543 0 0 0-.594-.608 3.46 3.46 0 0 0-2.382-.755Z"/></svg>